<svg xmlns="http://www.w3.org/2000/svg" width="42.523" height="53.717" viewBox="0 0 42.523 53.717"><g transform="translate(8.952 20.146)"><path d="M162.183,192.034H139.8a1.119,1.119,0,0,0-1.119,1.119v17.9a5.6,5.6,0,0,0,4.476,5.483v5.707a3.357,3.357,0,1,0,6.714,0v-5.6h2.238v5.6a3.357,3.357,0,1,0,6.714,0v-5.707a5.6,5.6,0,0,0,4.476-5.483v-17.9A1.118,1.118,0,0,0,162.183,192.034Z" transform="translate(-138.683 -192.034)" fill="#fe8c00"/></g><g transform="translate(8.952 0)"><path d="M156.85,5.963l1.887-4.4a1.119,1.119,0,1,0-2.057-.88l-1.887,4.4a12.2,12.2,0,0,0-7.6,0l-1.891-4.4a1.117,1.117,0,1,0-2.055.88l1.887,4.4a12.318,12.318,0,0,0-6.455,10.825,1.119,1.119,0,0,0,1.119,1.119h22.38a1.119,1.119,0,0,0,1.119-1.119A12.32,12.32,0,0,0,156.85,5.963Zm-10.333,7.468a1.119,1.119,0,1,1,1.119-1.119A1.12,1.12,0,0,1,146.517,13.431Zm8.952,0a1.119,1.119,0,1,1,1.119-1.119A1.119,1.119,0,0,1,155.469,13.431Z" transform="translate(-138.684 0.001)" fill="#fe8c00"/></g><g transform="translate(35.809 20.146)"><path d="M398.041,192.034a3.361,3.361,0,0,0-3.357,3.357v11.19a3.357,3.357,0,1,0,6.714,0v-11.19A3.361,3.361,0,0,0,398.041,192.034Z" transform="translate(-394.684 -192.034)" fill="#fe8c00"/></g><g transform="translate(0 20.146)"><path d="M56.707,192.034a3.361,3.361,0,0,0-3.357,3.357v11.19a3.357,3.357,0,0,0,6.714,0v-11.19A3.361,3.361,0,0,0,56.707,192.034Z" transform="translate(-53.35 -192.034)" fill="#fe8c00"/></g></svg>