<svg xmlns="http://www.w3.org/2000/svg" width="53.713" height="53.713" viewBox="0 0 53.713 53.713"><circle cx="8.719" cy="8.719" r="8.719" transform="translate(18.26 17.94)" fill="#fe8c00"/><path d="M70.247,24.277a12.085,12.085,0,0,1,11.786-9.485h24.009a26.871,26.871,0,0,0-43-6.926q-.732.732-1.4,1.509Z" transform="translate(-55.176)" fill="#fe8c00"/><path d="M30.516,141.611a12.062,12.062,0,0,1-14.139-5.525c-.015-.023-.03-.046-.044-.07L4.407,115.36a26.872,26.872,0,0,0,17.5,41.157Z" transform="translate(0 -103.258)" fill="#fe8c00"/><path d="M250.905,171a12.044,12.044,0,0,1,2.293,15.007c-.011.021-.02.041-.032.062l-11.928,20.66c.514.029,1.03.045,1.549.045A26.889,26.889,0,0,0,268.134,171Z" transform="translate(-215.931 -153.061)" fill="#fe8c00"/></svg>