<svg xmlns="http://www.w3.org/2000/svg" width="44.057" height="53.713" viewBox="0 0 44.057 53.713"><path d="M60.629,159.3c-7.994-.046-14.607-16.365-14.607-24.676,0-13.576,10.184-16.548,14.109-16.548a16.235,16.235,0,0,1,5.323,1.309,11.9,11.9,0,0,0,3.04.871,9.459,9.459,0,0,0,2.181-.707,17.477,17.477,0,0,1,6.573-1.589h.015c1.925,0,7.764.423,11.274,5.694l.822,1.236-1.183.893c-1.69,1.275-4.775,3.6-4.775,8.211a9.268,9.268,0,0,0,5.171,8.567c.741.446,1.508.905,1.508,1.91,0,.656-5.237,14.747-12.843,14.747a10.328,10.328,0,0,1-4.337-1.053,8.794,8.794,0,0,0-3.86-.93,9.928,9.928,0,0,0-3.057.827,14.971,14.971,0,0,1-5.3,1.237Z" transform="translate(-46.022 -105.583)" fill="#fe8c00"/><path d="M265.245,0c.2,7.142-4.909,12.1-10.011,11.786C254.394,6.086,260.335,0,265.245,0Z" transform="translate(-233.215)" fill="#fe8c00"/></svg>