<?xml version="1.0" encoding="UTF-8" ?>
<!DOCTYPE svg PUBLIC "-//W3C//DTD SVG 1.1//EN" "http://www.w3.org/Graphics/SVG/1.1/DTD/svg11.dtd">
<svg width="1067pt" height="1024pt" viewBox="0 0 1067 1024" version="1.1" xmlns="http://www.w3.org/2000/svg">
<g id="#ffffffff">
<path fill="#ffffff" opacity="1.00" d=" M 0.00 0.00 L 1067.00 0.00 L 1067.00 1024.00 L 0.00 1024.00 L 0.00 0.00 M 179.85 87.12 C 178.96 87.37 178.08 87.63 177.20 87.89 C 175.88 88.66 174.46 89.20 173.04 89.75 C 171.63 90.64 170.16 91.44 168.76 92.34 C 165.86 94.11 163.34 96.40 160.91 98.75 C 159.14 100.65 157.57 102.72 156.20 104.92 C 155.36 106.26 154.59 107.65 153.76 109.00 C 153.19 110.39 152.62 111.79 151.94 113.14 C 151.49 114.45 151.05 115.76 150.55 117.05 C 150.45 118.67 150.39 120.30 150.39 121.94 C 150.41 382.63 150.38 643.33 150.41 904.02 C 150.36 905.38 150.66 906.67 151.31 907.88 C 151.40 908.43 151.58 909.53 151.66 910.08 C 153.18 912.98 154.41 916.04 156.24 918.78 C 158.46 922.47 161.47 925.57 164.66 928.43 C 165.48 929.01 166.28 929.61 167.08 930.23 C 173.05 934.01 179.72 937.75 187.03 937.22 C 326.30 937.17 465.56 937.21 604.83 937.20 C 604.76 927.56 604.92 917.92 604.72 908.28 C 554.82 908.00 504.91 908.25 455.00 908.16 C 367.66 908.18 280.31 908.14 192.96 908.19 C 191.24 908.31 189.67 907.55 188.12 906.94 C 182.16 905.85 179.62 899.40 179.36 894.02 C 179.38 639.33 179.36 384.65 179.38 129.96 C 179.39 128.67 179.52 127.39 179.68 126.12 C 180.51 124.58 181.01 122.91 181.49 121.25 C 184.20 117.65 188.61 115.75 193.02 115.44 C 307.02 115.42 421.03 115.45 535.04 115.42 C 537.82 115.16 540.27 116.64 542.83 117.46 C 543.79 118.36 544.79 119.22 545.79 120.10 C 552.60 128.63 559.66 136.95 566.75 145.24 C 569.71 149.24 573.08 152.90 576.33 156.66 C 581.30 162.96 586.57 169.04 591.76 175.17 C 598.65 183.62 605.73 191.91 612.72 200.27 C 614.04 201.93 615.39 203.58 616.72 205.25 C 621.03 209.68 624.46 214.88 628.81 219.29 C 631.72 222.99 634.55 226.77 637.83 230.15 C 641.45 234.86 645.36 239.32 649.30 243.77 L 649.61 244.46 C 654.01 249.67 658.44 254.86 662.73 260.17 C 666.97 264.69 670.51 269.79 674.74 274.32 C 677.68 278.00 680.58 281.73 683.87 285.12 C 692.07 295.23 700.46 305.19 708.88 315.11 C 711.49 318.19 714.50 321.08 715.94 324.95 C 717.16 327.45 716.80 330.28 716.85 332.97 C 716.81 358.64 716.86 384.30 716.82 409.96 C 716.73 411.26 716.78 413.79 718.84 413.24 C 722.20 413.38 725.56 413.06 728.89 412.58 C 734.75 411.72 740.60 413.01 746.45 413.31 C 746.83 406.55 746.55 399.77 746.63 393.01 C 746.47 368.29 746.94 343.56 746.39 318.85 C 745.85 317.92 745.33 316.99 744.83 316.06 C 744.70 315.04 744.57 314.03 744.45 313.02 C 743.45 311.46 742.69 309.78 741.86 308.13 C 738.30 301.91 732.80 297.22 728.16 291.85 C 721.98 284.02 715.58 276.37 708.99 268.88 C 707.18 266.43 705.24 264.08 703.29 261.76 C 701.52 259.86 699.80 257.91 698.28 255.81 C 692.81 249.57 687.77 242.96 682.18 236.83 C 678.47 231.57 673.80 227.12 669.96 221.97 C 658.59 208.68 647.62 195.07 636.19 181.84 C 634.91 180.15 633.61 178.47 632.30 176.81 C 624.96 168.73 618.38 160.00 611.15 151.83 C 604.15 143.50 597.34 135.01 590.15 126.84 C 588.88 125.14 587.58 123.47 586.27 121.81 C 585.60 121.15 584.94 120.49 584.29 119.82 C 580.47 115.23 576.85 110.49 572.83 106.06 C 568.93 100.84 564.62 95.78 559.05 92.27 C 556.48 90.50 553.61 89.26 550.92 87.71 C 549.77 87.60 548.62 87.50 547.49 87.41 L 547.58 86.43 C 426.37 86.35 305.17 86.44 183.96 86.38 C 182.55 86.33 181.15 86.57 179.85 87.12 M 518.43 142.47 C 518.18 181.97 518.39 221.48 518.32 260.98 C 518.49 276.99 517.94 293.02 518.63 309.01 C 519.23 310.12 519.72 311.30 520.03 312.53 C 521.72 318.85 525.40 324.44 529.65 329.34 C 530.33 329.98 531.01 330.64 531.69 331.31 C 534.79 334.01 538.24 336.26 541.80 338.30 C 543.22 338.82 544.63 339.41 545.99 340.11 C 549.34 340.79 552.49 342.56 556.01 342.31 C 600.58 342.33 645.14 342.36 689.71 342.29 C 690.02 332.42 689.93 322.52 689.78 312.65 C 647.17 312.45 604.55 312.62 561.93 312.56 C 559.05 312.57 556.36 311.25 553.77 310.16 C 550.65 308.56 549.76 305.12 548.56 302.14 C 548.44 301.60 548.20 300.54 548.08 300.01 C 548.13 247.56 548.11 195.03 548.10 142.55 C 538.21 142.20 528.31 142.39 518.43 142.47 M 206.52 172.16 C 269.69 172.19 332.86 172.16 396.03 172.18 C 399.44 172.18 402.87 172.29 406.27 171.86 C 406.25 162.08 406.33 152.29 406.23 142.50 C 395.50 142.22 384.77 142.47 374.04 142.38 C 318.18 142.44 262.31 142.26 206.45 142.47 C 206.29 152.36 206.16 162.27 206.52 172.16 M 206.39 199.27 C 206.31 209.09 206.26 218.92 206.41 228.75 C 232.94 229.05 259.48 228.79 286.01 228.88 C 354.43 228.81 422.85 229.00 491.27 228.79 C 491.44 218.94 491.39 209.08 491.29 199.23 C 464.54 198.96 437.78 199.19 411.02 199.11 C 342.81 199.22 274.60 198.91 206.39 199.27 M 206.44 285.51 C 247.28 285.73 288.12 285.54 328.96 285.61 C 383.07 285.52 437.19 285.77 491.30 285.48 C 491.38 275.61 491.45 265.73 491.27 255.86 C 396.34 255.78 301.42 255.81 206.49 255.84 C 206.18 265.72 206.30 275.62 206.44 285.51 M 206.46 342.27 C 301.40 342.35 396.34 342.39 491.29 342.25 C 491.43 332.38 491.39 322.51 491.30 312.65 C 396.35 312.49 301.39 312.53 206.44 312.63 C 206.28 322.51 206.22 332.39 206.46 342.27 M 206.42 369.40 C 206.21 450.26 206.40 531.12 206.33 611.99 C 206.43 663.89 206.13 715.81 206.48 767.71 C 327.33 767.86 448.19 767.70 569.05 767.79 C 570.67 767.66 572.97 768.31 573.40 766.12 C 567.36 758.94 561.33 751.74 556.18 743.87 C 554.35 741.29 552.71 738.57 551.07 735.88 C 550.25 734.38 549.58 732.79 549.05 731.19 C 545.58 731.45 546.99 735.69 546.72 737.97 C 518.77 738.01 490.81 737.97 462.85 737.93 C 463.32 693.28 462.73 648.62 463.02 603.96 C 462.89 564.02 463.11 524.10 462.89 484.17 C 490.85 484.14 518.81 484.17 546.78 484.15 C 546.58 494.46 546.74 504.77 546.68 515.08 C 546.56 516.73 547.19 518.26 547.76 519.77 C 548.15 519.45 548.92 518.81 549.30 518.49 C 551.06 514.12 553.66 510.16 556.33 506.31 C 556.90 505.48 557.47 504.66 558.05 503.84 C 563.83 495.44 570.34 487.54 577.25 480.05 C 579.50 477.66 581.81 475.33 584.20 473.08 C 584.87 472.42 585.55 471.77 586.24 471.13 C 586.89 470.53 587.55 469.94 588.22 469.37 C 589.52 468.24 590.84 467.14 592.16 466.03 C 594.74 464.01 597.19 461.81 599.61 459.59 C 601.50 458.12 604.59 457.53 604.82 454.72 C 595.35 453.93 585.82 454.60 576.32 454.33 C 576.54 435.92 576.49 417.50 576.35 399.09 C 604.31 399.10 632.28 399.10 660.24 399.09 C 660.05 407.97 660.06 416.86 660.23 425.74 C 662.09 425.70 663.95 425.55 665.81 425.28 C 667.53 423.84 669.83 423.79 671.92 423.37 C 672.31 423.14 673.09 422.68 673.48 422.44 C 678.94 421.34 684.06 418.89 689.60 418.15 C 690.19 401.93 689.83 385.67 689.80 369.43 C 646.53 369.13 603.26 369.39 559.99 369.30 C 442.14 369.37 324.28 369.17 206.42 369.40 M 709.94 440.67 C 706.24 442.64 701.91 441.73 697.94 442.57 C 694.94 444.56 690.93 443.07 687.98 445.31 C 686.45 445.47 684.94 445.60 683.44 445.71 C 682.69 446.20 681.94 446.68 681.21 447.18 C 679.68 447.32 678.17 447.50 676.67 447.76 C 674.70 449.26 672.02 449.15 669.93 450.44 C 660.80 453.18 652.50 457.96 643.87 461.88 C 636.86 466.27 629.38 470.00 623.00 475.31 C 620.95 476.75 618.91 478.21 616.93 479.73 C 616.12 480.38 615.30 481.01 614.47 481.62 C 613.26 482.70 612.04 483.77 610.83 484.85 C 610.10 485.44 609.38 486.03 608.66 486.62 C 606.70 488.39 604.76 490.17 602.84 491.98 C 601.52 493.25 600.21 494.53 598.92 495.83 C 596.66 498.27 594.38 500.69 592.23 503.22 C 586.26 510.09 580.83 517.41 575.73 524.95 C 573.72 528.64 571.46 532.19 569.26 535.77 C 568.31 537.38 567.58 539.11 566.65 540.74 C 565.87 542.54 564.99 544.31 564.18 546.10 C 562.85 548.76 561.51 551.42 560.37 554.16 C 559.42 556.10 558.91 558.21 557.90 560.12 C 556.56 565.10 554.21 569.78 553.40 574.90 C 551.50 577.32 552.66 580.81 550.72 583.22 C 550.48 586.81 549.72 590.30 548.68 593.75 C 548.65 597.88 548.10 601.96 546.81 605.90 C 546.72 618.62 546.50 631.36 546.91 644.07 C 547.97 648.63 548.81 653.20 548.79 657.92 C 550.43 660.63 550.28 663.84 550.68 666.88 C 552.20 668.91 552.05 671.54 552.61 673.92 C 554.09 676.11 553.75 679.00 555.31 681.16 C 555.51 682.34 555.73 683.53 555.95 684.73 C 556.99 686.24 557.43 688.00 557.95 689.75 C 558.61 691.16 559.12 692.65 559.62 694.15 C 560.59 696.00 561.32 697.98 562.24 699.88 C 564.12 704.41 566.60 708.67 568.62 713.14 C 570.47 716.02 572.17 719.00 573.85 722.00 C 575.21 723.98 576.54 725.99 577.76 728.07 C 578.55 729.03 579.32 730.01 580.10 731.01 C 581.95 734.41 584.74 737.13 586.96 740.28 C 589.75 744.35 593.71 747.42 596.61 751.42 C 600.31 754.98 603.84 758.73 607.75 762.08 C 610.46 764.43 612.95 767.05 615.92 769.10 C 621.00 773.13 626.18 777.07 631.80 780.33 C 631.76 831.80 631.68 883.27 631.83 934.74 C 632.83 934.53 634.01 934.72 634.88 934.08 C 640.20 930.39 645.56 926.74 650.99 923.20 C 661.05 916.32 671.24 909.63 681.31 902.76 C 683.85 901.09 686.40 899.41 688.89 897.67 C 691.60 895.82 694.39 894.10 697.03 892.16 C 698.78 891.08 700.49 889.95 702.14 888.72 C 703.45 887.85 704.77 887.01 706.10 886.17 C 707.05 885.48 708.02 884.82 709.01 884.19 C 710.24 883.34 711.50 882.54 712.69 881.64 C 718.57 877.92 724.23 873.86 730.06 870.08 C 730.48 869.74 731.32 869.06 731.73 868.72 C 734.67 871.08 737.92 873.00 740.98 875.21 C 743.39 876.63 745.72 878.21 748.00 879.86 C 752.40 882.78 756.74 885.80 761.18 888.68 C 762.42 889.57 763.72 890.39 765.00 891.26 C 765.95 891.88 766.90 892.53 767.83 893.22 C 769.11 894.06 770.39 894.89 771.68 895.73 C 773.77 897.22 775.95 898.60 778.07 900.08 C 780.42 901.58 782.71 903.18 785.06 904.70 C 786.30 905.56 787.57 906.39 788.80 907.31 C 792.00 909.33 795.08 911.55 798.28 913.59 C 799.49 914.47 800.76 915.28 802.02 916.13 C 802.96 916.75 803.90 917.39 804.84 918.05 C 806.49 919.12 808.17 920.17 809.75 921.37 C 814.16 924.31 818.60 927.21 822.95 930.24 C 825.81 931.75 828.05 934.60 831.43 934.97 C 832.04 912.99 831.53 890.97 831.69 868.98 C 831.65 839.53 831.79 810.09 831.62 780.64 C 832.50 780.00 833.40 779.38 834.29 778.75 C 836.54 777.25 838.73 775.66 841.03 774.24 C 852.89 765.48 863.48 755.19 873.34 744.26 C 873.94 743.53 874.55 742.82 875.18 742.12 C 875.86 741.14 876.54 740.15 877.25 739.19 C 883.31 732.02 888.37 724.07 893.12 715.99 C 894.05 714.34 894.95 712.67 895.83 711.00 C 897.42 708.18 898.81 705.26 900.27 702.38 C 900.76 701.07 901.29 699.77 901.88 698.51 C 902.54 696.92 903.18 695.35 903.84 693.77 C 904.31 692.47 904.83 691.19 905.45 689.96 C 906.76 686.38 907.64 682.62 909.29 679.19 C 909.42 677.00 909.96 674.88 911.18 673.03 C 911.33 671.62 911.49 670.22 911.68 668.83 C 913.60 665.86 912.82 662.18 914.13 659.02 C 916.91 646.89 915.77 634.36 916.00 622.00 C 915.80 613.69 916.62 605.30 915.02 597.10 C 915.17 593.21 913.22 589.74 913.09 585.90 C 912.63 582.81 911.00 579.98 911.23 576.76 C 910.70 575.95 910.19 575.14 909.69 574.34 C 909.59 573.15 909.49 571.97 909.41 570.80 C 908.19 569.06 907.84 566.94 907.34 564.94 C 906.41 563.37 905.96 561.59 905.44 559.88 C 903.87 556.53 902.95 552.87 900.87 549.78 C 900.74 549.33 900.48 548.43 900.34 547.98 C 898.56 545.12 897.36 541.95 895.87 538.95 C 895.04 537.25 894.11 535.61 893.23 533.96 C 892.37 532.69 891.55 531.42 890.70 530.17 C 890.05 529.05 889.41 527.95 888.70 526.91 C 877.10 507.98 861.85 491.20 844.05 477.92 C 841.71 476.21 839.44 474.41 837.18 472.61 C 833.80 470.47 830.42 468.32 826.94 466.36 C 825.63 465.47 824.28 464.66 822.99 463.77 C 821.28 462.84 819.60 461.87 817.79 461.16 C 817.35 460.85 816.47 460.22 816.03 459.91 C 815.54 459.81 814.56 459.62 814.07 459.52 C 812.42 458.47 810.62 457.72 808.97 456.73 C 807.63 456.14 806.32 455.57 805.05 454.88 C 803.67 454.30 802.32 453.72 801.00 453.08 C 798.00 451.94 794.90 451.04 792.02 449.65 C 788.02 448.37 783.86 447.54 779.99 445.91 C 775.84 445.60 772.06 443.59 767.87 443.52 C 763.75 441.62 759.12 442.59 754.87 441.28 C 751.44 439.87 747.62 440.46 744.02 440.24 C 732.66 440.27 721.27 439.86 709.94 440.67 M 206.44 824.42 C 248.97 824.58 291.50 824.44 334.03 824.49 C 424.26 824.42 514.50 824.62 604.73 824.39 C 604.82 814.51 604.96 804.63 604.66 794.76 C 471.93 794.69 339.20 794.68 206.46 794.77 C 206.21 804.64 206.29 814.54 206.44 824.42 M 206.47 881.20 C 339.19 881.26 471.91 881.25 604.63 881.20 C 605.00 871.33 604.81 861.44 604.74 851.57 C 573.15 851.28 541.56 851.53 509.98 851.44 C 408.80 851.51 307.63 851.33 206.45 851.53 C 206.26 861.41 206.21 871.31 206.47 881.20 Z" />
<path fill="#ffffff" opacity="1.00" d=" M 235.98 399.11 C 263.94 399.06 291.90 399.12 319.85 399.09 C 319.70 417.51 319.67 435.94 319.87 454.36 C 291.91 454.35 263.95 454.41 235.99 454.34 C 236.19 435.93 236.22 417.52 235.98 399.11 Z" />
<path fill="#ffffff" opacity="1.00" d=" M 349.44 399.09 C 377.41 399.10 405.37 399.09 433.33 399.09 C 433.17 417.51 433.15 435.93 433.35 454.34 C 405.37 454.39 377.40 454.38 349.43 454.35 C 349.63 435.93 349.59 417.51 349.44 399.09 Z" />
<path fill="#ffffff" opacity="1.00" d=" M 462.86 399.10 C 490.83 399.08 518.80 399.11 546.77 399.08 C 546.65 417.50 546.61 435.93 546.80 454.35 C 518.81 454.40 490.82 454.36 462.83 454.37 C 463.33 443.92 462.78 433.47 462.93 423.02 C 462.78 415.05 463.32 407.07 462.86 399.10 Z" />
<path fill="#ffffff" opacity="1.00" d=" M 719.03 471.21 C 727.02 469.02 735.47 469.94 743.61 470.64 L 743.54 471.29 C 746.34 471.41 749.15 471.57 751.97 471.63 C 756.15 471.38 759.92 473.62 764.10 473.57 C 768.99 474.98 773.90 476.42 778.92 477.38 C 781.01 478.76 783.63 478.95 785.76 480.30 C 786.34 480.42 787.49 480.67 788.06 480.79 C 790.34 481.88 792.88 482.40 795.01 483.83 C 795.48 484.00 796.43 484.34 796.91 484.50 C 798.54 485.48 800.30 486.24 801.98 487.17 C 803.31 487.72 804.63 488.31 805.93 488.95 C 809.27 491.00 812.55 493.16 816.01 495.01 C 816.98 495.64 817.97 496.28 818.97 496.91 C 820.92 498.37 822.84 499.86 824.78 501.35 C 828.81 503.89 832.23 507.22 835.75 510.39 C 836.44 510.92 837.14 511.47 837.85 512.02 C 840.31 514.29 842.70 516.64 844.95 519.14 C 845.51 519.81 846.08 520.50 846.65 521.20 C 848.83 523.72 851.03 526.24 853.32 528.68 C 854.98 531.28 856.73 533.82 858.71 536.19 C 861.89 540.56 864.28 545.45 867.44 549.84 C 868.26 551.57 869.06 553.32 869.84 555.09 C 870.49 556.37 871.09 557.67 871.68 559.00 C 876.77 568.83 880.01 579.51 882.58 590.23 C 884.08 593.70 883.09 597.76 885.30 601.01 C 885.36 604.72 885.36 608.43 885.68 612.13 C 887.25 616.92 886.90 622.04 887.16 627.01 C 887.50 632.41 885.33 637.56 885.41 642.95 C 885.37 646.35 885.49 649.88 883.84 652.98 C 883.54 657.82 882.22 662.63 880.56 667.15 C 880.29 668.77 880.14 670.42 880.02 672.07 C 879.66 672.44 878.95 673.17 878.59 673.54 C 878.34 675.44 877.84 677.31 876.97 679.03 C 876.41 680.76 875.74 682.45 874.94 684.08 C 874.83 684.61 874.62 685.66 874.51 686.18 C 873.53 687.77 872.77 689.48 871.85 691.11 C 871.24 692.45 870.66 693.82 870.02 695.15 C 868.70 698.17 866.96 700.97 865.40 703.87 C 864.48 705.19 863.62 706.55 862.75 707.90 C 862.14 708.94 861.54 709.99 860.95 711.04 C 856.73 717.08 852.36 723.04 847.40 728.50 C 839.49 737.87 829.87 745.59 820.03 752.82 C 817.35 754.59 814.62 756.27 811.85 757.89 C 806.37 761.42 800.54 764.38 794.49 766.77 C 794.14 767.09 793.43 767.72 793.07 768.03 C 792.02 768.19 790.99 768.37 789.97 768.57 C 788.12 769.90 785.79 770.16 783.81 771.21 C 782.06 771.72 780.27 772.20 778.78 773.28 C 777.43 773.44 776.07 773.57 774.75 773.73 C 772.45 775.20 769.72 775.36 767.10 775.70 C 764.18 777.99 760.02 776.34 757.01 778.46 C 751.67 778.97 746.25 778.85 740.97 779.98 C 729.93 782.10 718.95 778.73 707.91 778.68 C 704.23 776.68 699.66 777.95 696.19 775.62 C 693.71 775.34 691.15 775.22 688.99 773.87 C 686.78 773.60 684.55 773.33 682.61 772.15 C 677.98 770.57 673.37 768.92 668.87 766.98 C 667.54 766.31 666.22 765.66 664.94 764.95 C 664.48 764.79 663.57 764.46 663.12 764.30 C 661.43 763.33 659.64 762.56 657.93 761.67 C 654.27 759.73 650.89 757.29 647.25 755.33 C 643.82 753.21 640.72 750.61 637.41 748.34 C 636.28 747.47 635.13 746.65 634.01 745.79 C 631.59 743.60 629.16 741.42 626.64 739.35 C 623.47 736.54 620.41 733.60 617.69 730.35 C 614.76 726.68 611.37 723.40 608.64 719.57 C 607.33 717.50 605.81 715.58 604.24 713.72 C 603.58 712.75 602.97 711.75 602.37 710.77 C 600.52 707.89 598.80 704.94 597.10 701.99 C 596.48 700.96 595.87 699.91 595.29 698.88 C 594.42 697.24 593.69 695.54 592.82 693.92 C 591.94 691.93 591.00 689.98 590.00 688.06 C 587.55 682.84 586.15 677.18 583.68 671.97 C 583.50 670.64 583.34 669.30 583.17 667.99 C 581.15 664.92 582.16 660.92 579.88 657.98 C 579.77 655.96 579.68 653.95 579.42 651.96 C 578.49 650.50 578.14 648.79 578.21 647.09 C 578.35 639.65 575.98 632.43 576.41 624.98 C 575.96 618.24 578.16 611.72 578.18 605.01 C 578.16 602.91 578.28 600.79 579.09 598.84 C 580.22 595.93 579.38 592.48 581.33 589.87 C 581.49 588.27 581.61 586.68 581.77 585.09 C 583.17 583.38 583.36 581.20 583.66 579.11 C 584.33 577.09 585.18 575.13 585.79 573.10 C 587.47 568.99 588.85 564.74 590.84 560.76 C 591.47 559.50 592.07 558.22 592.64 556.93 C 593.52 555.30 594.25 553.59 595.11 551.95 C 597.35 547.91 599.72 543.94 602.22 540.05 C 603.99 536.68 606.77 534.00 608.74 530.77 C 618.14 518.46 629.43 507.69 642.05 498.72 C 644.27 497.02 646.65 495.54 649.10 494.18 C 650.42 493.30 651.79 492.49 653.11 491.59 C 655.86 490.02 658.53 488.25 661.56 487.24 C 661.90 486.99 662.57 486.49 662.90 486.24 C 666.36 485.04 669.45 482.97 672.95 481.83 C 674.58 481.15 676.24 480.57 677.93 480.04 C 679.60 479.21 681.41 478.76 683.20 478.25 C 685.40 476.29 688.81 477.52 690.99 475.52 C 695.49 475.39 699.46 472.85 704.03 473.17 C 708.65 470.70 714.05 472.07 719.03 471.21 M 716.91 497.68 C 716.77 506.87 716.79 516.07 716.93 525.26 C 713.32 525.32 709.71 525.28 706.12 525.65 C 704.32 526.91 702.10 527.00 700.06 527.55 C 697.30 528.61 694.57 529.75 691.89 530.98 C 680.77 536.64 671.58 545.80 665.85 556.87 C 664.68 559.47 663.55 562.10 662.57 564.78 C 661.86 566.85 661.97 569.22 660.56 571.02 C 659.86 578.77 660.04 586.58 660.44 594.34 C 660.74 594.71 661.34 595.46 661.64 595.83 C 661.89 597.51 662.16 599.21 662.53 600.89 C 663.31 602.17 663.71 603.61 664.11 605.07 C 664.39 605.44 664.96 606.19 665.25 606.57 C 668.01 613.85 673.13 620.00 678.65 625.39 C 682.64 628.86 687.06 631.78 691.64 634.39 C 694.49 635.61 697.39 636.71 700.19 638.07 C 701.44 638.22 702.71 638.39 703.99 638.55 C 706.37 640.10 709.29 640.09 712.04 640.14 C 723.02 640.15 734.00 640.16 744.98 640.14 C 747.06 640.14 749.28 640.10 751.11 641.28 C 752.73 641.59 754.39 641.83 756.05 642.05 C 756.40 642.34 757.10 642.93 757.45 643.22 C 761.20 644.60 764.30 647.20 767.02 650.06 C 767.62 651.04 768.23 652.01 768.85 653.00 C 772.03 658.34 774.05 664.75 773.32 670.99 C 772.02 673.48 772.31 676.45 770.91 678.91 C 769.63 681.52 768.02 683.95 766.33 686.32 C 764.59 687.86 762.83 689.39 760.89 690.68 C 759.27 691.68 757.55 692.51 755.98 693.58 C 754.92 693.67 753.87 693.75 752.83 693.85 C 750.58 694.56 748.34 695.55 745.93 695.46 C 735.97 695.41 726.00 695.55 716.03 695.40 C 711.83 694.50 707.56 693.56 703.75 691.48 C 700.71 689.51 697.81 687.28 695.70 684.30 C 695.02 683.23 694.30 682.18 693.56 681.17 C 692.99 679.87 692.42 678.59 691.83 677.32 C 691.29 673.87 690.03 670.59 689.54 667.14 C 679.77 667.12 670.00 667.01 660.24 667.21 C 660.47 671.75 659.13 676.88 661.54 680.99 C 661.87 682.66 662.18 684.35 662.55 686.03 C 663.54 687.95 664.22 690.01 665.11 691.99 C 671.78 706.72 685.01 717.63 700.04 723.11 C 701.37 723.31 702.71 723.48 704.07 723.69 C 707.96 726.03 712.62 725.00 716.92 725.24 C 716.90 734.67 716.55 744.12 717.11 753.54 C 726.92 753.59 736.73 753.67 746.53 753.49 C 746.70 744.07 746.68 734.65 746.53 725.23 C 750.72 724.94 755.37 726.13 759.14 723.73 C 760.49 723.51 761.85 723.34 763.24 723.18 C 764.79 722.36 766.41 721.70 768.10 721.19 C 777.54 716.94 786.06 710.52 792.26 702.18 C 793.76 699.86 795.42 697.65 796.71 695.21 C 797.63 693.56 798.36 691.81 799.31 690.18 C 800.90 686.27 801.67 682.12 803.02 678.15 C 803.65 672.45 803.23 666.68 803.32 660.96 C 803.60 657.13 801.35 653.78 801.13 650.01 C 800.29 648.45 799.70 646.77 799.15 645.10 C 797.85 642.68 796.60 640.23 795.34 637.80 C 793.60 635.50 792.00 633.12 790.28 630.83 C 789.58 630.14 788.90 629.46 788.24 628.77 C 787.57 628.11 786.92 627.45 786.28 626.78 C 783.70 624.24 780.96 621.86 777.96 619.83 C 776.96 619.19 775.97 618.58 775.00 617.94 C 771.80 616.26 768.59 614.56 765.20 613.32 C 762.62 611.97 759.48 612.39 757.06 610.68 C 746.72 610.02 736.35 610.52 726.00 610.37 C 721.00 610.18 715.77 611.11 711.06 608.97 C 708.43 608.79 706.13 607.56 703.80 606.48 C 702.59 605.54 701.32 604.70 700.07 603.85 C 698.49 602.45 697.03 600.93 695.66 599.34 C 695.01 598.15 694.33 597.00 693.62 595.87 C 693.03 594.63 692.43 593.41 691.82 592.20 C 690.97 587.20 688.11 581.85 691.25 577.02 C 691.41 575.72 691.58 574.42 691.75 573.14 C 693.00 570.82 694.26 568.52 695.57 566.23 C 696.46 565.24 697.34 564.23 698.24 563.25 C 699.21 562.37 700.20 561.53 701.19 560.68 C 702.18 560.05 703.18 559.42 704.17 558.78 C 704.59 558.62 705.43 558.30 705.85 558.14 C 708.56 556.37 711.97 556.41 714.96 555.29 C 724.28 554.79 733.65 555.25 742.99 555.07 C 745.68 555.17 748.66 554.61 751.01 556.29 C 752.66 556.54 754.33 556.73 756.02 556.93 C 756.39 557.24 757.15 557.86 757.53 558.17 C 762.98 560.12 766.91 564.60 769.98 569.32 C 770.14 569.82 770.46 570.81 770.62 571.31 C 772.81 574.89 772.82 579.35 773.88 583.35 C 783.67 583.45 793.48 583.48 803.28 583.33 C 803.33 580.87 803.36 578.42 803.32 575.98 C 803.57 572.15 801.48 568.73 801.11 564.98 C 800.25 563.43 799.71 561.73 799.18 560.06 C 798.44 558.77 797.82 557.42 797.21 556.09 C 796.38 554.75 795.62 553.36 794.80 552.03 C 790.47 545.15 784.72 539.26 777.97 534.74 C 776.98 534.11 776.01 533.51 775.05 532.89 C 771.18 530.86 767.27 528.86 763.12 527.47 C 761.10 526.98 758.93 526.85 757.18 525.62 C 753.63 525.28 750.05 525.31 746.50 525.28 C 746.76 515.92 746.61 506.55 746.59 497.19 C 738.10 496.54 729.58 497.06 721.08 496.87 C 719.68 497.05 717.92 496.42 716.91 497.68 Z" />
<path fill="#ffffff" opacity="1.00" d=" M 236.05 484.16 C 263.98 484.16 291.92 484.16 319.86 484.16 C 319.67 568.79 319.73 653.44 319.83 738.07 C 291.91 737.81 263.99 738.08 236.07 737.98 C 236.13 653.37 236.18 568.76 236.05 484.16 Z" />
<path fill="#ffffff" opacity="1.00" d=" M 349.44 484.16 C 377.41 484.15 405.37 484.16 433.34 484.15 C 433.08 539.09 433.31 594.03 433.23 648.96 C 433.29 678.66 433.11 708.36 433.32 738.05 C 405.36 737.94 377.41 737.93 349.46 738.05 C 349.65 685.03 349.48 632.00 349.54 578.98 C 349.47 547.37 349.67 515.76 349.44 484.16 Z" />
<path fill="#ffffff" opacity="1.00" d=" M 661.74 795.77 C 662.00 796.20 662.54 797.05 662.80 797.47 C 664.57 797.80 666.37 798.18 667.90 799.20 C 669.67 799.60 671.43 800.09 673.06 800.94 C 676.12 801.68 678.93 803.31 682.16 803.39 C 682.47 803.68 683.09 804.25 683.40 804.53 C 685.92 804.92 688.77 804.61 690.87 806.34 C 693.92 806.72 697.18 806.50 699.89 808.24 C 706.40 807.80 712.47 810.76 718.97 810.26 C 728.68 810.31 738.39 810.33 748.10 810.22 C 751.79 810.25 755.22 808.41 758.92 808.49 C 763.52 808.66 767.65 806.21 772.28 806.39 C 774.50 804.85 777.28 804.91 779.83 804.40 C 782.00 802.69 785.16 803.53 787.22 801.59 C 788.29 801.46 789.37 801.36 790.47 801.28 C 791.14 800.73 791.82 800.18 792.50 799.65 C 793.58 799.53 794.67 799.41 795.77 799.29 C 797.60 797.87 800.04 797.72 801.96 796.45 C 801.68 824.46 802.25 852.50 801.67 880.50 C 796.85 876.42 791.22 873.48 786.11 869.81 C 783.74 868.29 781.42 866.71 779.05 865.23 C 773.38 861.39 767.63 857.68 761.95 853.87 C 757.31 850.89 752.76 847.79 748.15 844.78 C 746.76 843.91 745.40 842.99 744.05 842.10 C 740.17 839.60 736.43 836.91 732.54 834.45 C 729.89 833.96 728.08 836.71 725.93 837.82 C 724.94 838.45 723.93 839.06 722.95 839.71 C 720.36 841.52 717.69 843.20 715.05 844.95 C 712.02 847.00 708.89 848.90 705.92 851.05 C 704.53 851.90 703.16 852.78 701.78 853.65 C 700.50 854.58 699.14 855.41 697.83 856.30 C 696.89 856.93 695.96 857.57 695.04 858.23 C 693.65 859.08 692.28 859.96 690.92 860.85 C 689.97 861.49 689.01 862.09 688.06 862.73 C 683.34 866.03 678.38 869.00 673.66 872.31 C 672.35 873.12 671.06 873.97 669.77 874.82 C 667.02 876.65 664.27 878.48 661.55 880.34 C 661.63 852.15 661.26 823.95 661.74 795.77 Z" />
</g>
<g id="#010101ff">
<path fill="#010101" opacity="1.00" d=" M 179.85 87.12 C 181.15 86.57 182.55 86.33 183.96 86.38 C 305.17 86.44 426.37 86.35 547.58 86.43 L 547.49 87.41 C 548.62 87.50 549.77 87.60 550.92 87.71 C 553.61 89.26 556.48 90.50 559.05 92.27 C 564.62 95.78 568.93 100.84 572.83 106.06 C 576.85 110.49 580.47 115.23 584.29 119.82 C 584.94 120.49 585.60 121.15 586.27 121.81 C 587.58 123.47 588.88 125.14 590.15 126.84 C 597.34 135.01 604.15 143.50 611.15 151.83 C 618.38 160.00 624.96 168.73 632.30 176.81 C 633.61 178.47 634.91 180.15 636.19 181.84 C 647.62 195.07 658.59 208.68 669.96 221.97 C 673.80 227.12 678.47 231.57 682.18 236.83 C 687.77 242.96 692.81 249.57 698.28 255.81 C 699.80 257.91 701.52 259.86 703.29 261.76 C 705.24 264.08 707.18 266.43 708.99 268.88 C 715.58 276.37 721.98 284.02 728.16 291.85 C 732.80 297.22 738.30 301.91 741.86 308.13 C 742.69 309.78 743.45 311.46 744.45 313.02 C 744.57 314.03 744.70 315.04 744.83 316.06 C 745.33 316.99 745.85 317.92 746.39 318.85 C 746.94 343.56 746.47 368.29 746.63 393.01 C 746.55 399.77 746.83 406.55 746.45 413.31 C 740.60 413.01 734.75 411.72 728.89 412.58 C 725.56 413.06 722.20 413.38 718.84 413.24 C 716.78 413.79 716.73 411.26 716.82 409.96 C 716.86 384.30 716.81 358.64 716.85 332.97 C 716.80 330.28 717.16 327.45 715.94 324.95 C 714.50 321.08 711.49 318.19 708.88 315.11 C 700.46 305.19 692.07 295.23 683.87 285.12 C 680.58 281.73 677.68 278.00 674.74 274.32 C 670.51 269.79 666.97 264.69 662.73 260.17 C 658.44 254.86 654.01 249.67 649.61 244.46 L 649.30 243.77 C 645.36 239.32 641.45 234.86 637.83 230.15 C 634.55 226.77 631.72 222.99 628.81 219.29 C 624.46 214.88 621.03 209.68 616.72 205.25 C 615.39 203.58 614.04 201.93 612.72 200.27 C 605.73 191.91 598.65 183.62 591.76 175.17 C 586.57 169.04 581.30 162.96 576.33 156.66 C 573.08 152.90 569.71 149.24 566.75 145.24 C 559.66 136.95 552.60 128.63 545.79 120.10 C 544.79 119.22 543.79 118.36 542.83 117.46 C 540.27 116.64 537.82 115.16 535.04 115.42 C 421.03 115.45 307.02 115.42 193.02 115.44 C 188.61 115.75 184.20 117.65 181.49 121.25 C 181.01 122.91 180.51 124.58 179.68 126.12 C 179.52 127.39 179.39 128.67 179.38 129.96 C 179.36 384.65 179.38 639.33 179.36 894.02 C 179.62 899.40 182.16 905.85 188.12 906.94 C 189.67 907.55 191.24 908.31 192.96 908.19 C 280.31 908.14 367.66 908.18 455.00 908.16 C 504.91 908.25 554.82 908.00 604.72 908.28 C 604.92 917.92 604.76 927.56 604.83 937.20 C 465.56 937.21 326.30 937.17 187.03 937.22 C 179.72 937.75 173.05 934.01 167.08 930.23 C 166.28 929.61 165.48 929.01 164.66 928.43 C 161.47 925.57 158.46 922.47 156.24 918.78 C 154.41 916.04 153.18 912.98 151.66 910.08 C 151.58 909.53 151.40 908.43 151.31 907.88 C 150.66 906.67 150.36 905.38 150.41 904.02 C 150.38 643.33 150.41 382.63 150.39 121.94 C 150.39 120.30 150.45 118.67 150.55 117.05 C 151.05 115.76 151.49 114.45 151.94 113.14 C 152.62 111.79 153.19 110.39 153.76 109.00 C 154.59 107.65 155.36 106.26 156.20 104.92 C 157.57 102.72 159.14 100.65 160.91 98.75 C 163.34 96.40 165.86 94.11 168.76 92.34 C 170.16 91.44 171.63 90.64 173.04 89.75 C 174.46 89.20 175.88 88.66 177.20 87.89 C 178.08 87.63 178.96 87.37 179.85 87.12 Z" />
<path fill="#010101" opacity="1.00" d=" M 518.43 142.47 C 528.31 142.39 538.21 142.20 548.10 142.55 C 548.11 195.03 548.13 247.56 548.08 300.01 C 548.20 300.54 548.44 301.60 548.56 302.14 C 549.76 305.12 550.65 308.56 553.77 310.16 C 556.36 311.25 559.05 312.57 561.93 312.56 C 604.55 312.62 647.17 312.45 689.78 312.65 C 689.93 322.52 690.02 332.42 689.71 342.29 C 645.14 342.36 600.58 342.33 556.01 342.31 C 552.49 342.56 549.34 340.79 545.99 340.11 C 544.63 339.41 543.22 338.82 541.80 338.30 C 538.24 336.26 534.79 334.01 531.69 331.31 C 531.01 330.64 530.33 329.98 529.65 329.34 C 525.40 324.44 521.72 318.85 520.03 312.53 C 519.72 311.30 519.23 310.12 518.63 309.01 C 517.94 293.02 518.49 276.99 518.32 260.98 C 518.39 221.48 518.18 181.97 518.43 142.47 Z" />
<path fill="#010101" opacity="1.00" d=" M 206.52 172.16 C 206.16 162.27 206.29 152.36 206.45 142.47 C 262.31 142.26 318.18 142.44 374.04 142.38 C 384.77 142.47 395.50 142.22 406.23 142.50 C 406.33 152.29 406.25 162.08 406.27 171.86 C 402.87 172.29 399.44 172.18 396.03 172.18 C 332.86 172.16 269.69 172.19 206.52 172.16 Z" />
<path fill="#010101" opacity="1.00" d=" M 206.39 199.27 C 274.60 198.91 342.81 199.22 411.02 199.11 C 437.78 199.19 464.54 198.96 491.29 199.23 C 491.39 209.08 491.44 218.94 491.27 228.79 C 422.85 229.00 354.43 228.81 286.01 228.88 C 259.48 228.79 232.94 229.05 206.41 228.75 C 206.26 218.92 206.31 209.09 206.39 199.27 Z" />
<path fill="#010101" opacity="1.00" d=" M 206.44 285.51 C 206.30 275.62 206.18 265.72 206.49 255.84 C 301.42 255.81 396.34 255.78 491.27 255.86 C 491.45 265.73 491.38 275.61 491.30 285.48 C 437.19 285.77 383.07 285.52 328.96 285.61 C 288.12 285.54 247.28 285.73 206.44 285.51 Z" />
<path fill="#010101" opacity="1.00" d=" M 206.46 342.27 C 206.22 332.39 206.28 322.51 206.44 312.63 C 301.39 312.53 396.35 312.49 491.30 312.65 C 491.39 322.51 491.43 332.38 491.29 342.25 C 396.34 342.39 301.40 342.35 206.46 342.27 Z" />
<path fill="#010101" opacity="1.00" d=" M 206.42 369.40 C 324.28 369.17 442.14 369.37 559.99 369.30 C 603.26 369.39 646.53 369.13 689.80 369.43 C 689.83 385.67 690.19 401.93 689.60 418.15 C 684.06 418.89 678.94 421.34 673.48 422.44 C 673.09 422.68 672.31 423.14 671.92 423.37 C 669.83 423.79 667.53 423.84 665.81 425.28 C 663.95 425.55 662.09 425.70 660.23 425.74 C 660.06 416.86 660.05 407.97 660.24 399.09 C 632.28 399.10 604.31 399.10 576.35 399.09 C 576.49 417.50 576.54 435.92 576.32 454.33 C 585.82 454.60 595.35 453.93 604.82 454.72 C 604.59 457.53 601.50 458.12 599.61 459.59 C 597.19 461.81 594.74 464.01 592.16 466.03 C 590.84 467.14 589.52 468.24 588.22 469.37 C 587.55 469.94 586.89 470.53 586.24 471.13 C 585.55 471.77 584.87 472.42 584.20 473.08 C 581.81 475.33 579.50 477.66 577.25 480.05 C 570.34 487.54 563.83 495.44 558.05 503.84 C 557.47 504.66 556.90 505.48 556.33 506.31 C 553.66 510.16 551.06 514.12 549.30 518.49 C 548.92 518.81 548.15 519.45 547.76 519.77 C 547.19 518.26 546.56 516.73 546.68 515.08 C 546.74 504.77 546.58 494.46 546.78 484.15 C 518.81 484.17 490.85 484.14 462.89 484.17 C 463.11 524.10 462.89 564.02 463.02 603.96 C 462.73 648.62 463.32 693.28 462.85 737.93 C 490.81 737.97 518.77 738.01 546.72 737.97 C 546.99 735.69 545.58 731.45 549.05 731.19 C 549.58 732.79 550.25 734.38 551.07 735.88 C 552.71 738.57 554.35 741.29 556.18 743.87 C 561.33 751.74 567.36 758.94 573.40 766.12 C 572.97 768.31 570.67 767.66 569.05 767.79 C 448.19 767.70 327.33 767.86 206.48 767.71 C 206.13 715.81 206.43 663.89 206.33 611.99 C 206.40 531.12 206.21 450.26 206.42 369.40 M 235.98 399.11 C 236.22 417.52 236.19 435.93 235.99 454.34 C 263.95 454.41 291.91 454.35 319.87 454.36 C 319.67 435.94 319.70 417.51 319.85 399.09 C 291.90 399.12 263.94 399.06 235.98 399.11 M 349.44 399.09 C 349.59 417.51 349.63 435.93 349.43 454.35 C 377.40 454.38 405.37 454.39 433.35 454.34 C 433.15 435.93 433.17 417.51 433.33 399.09 C 405.37 399.09 377.41 399.10 349.44 399.09 M 462.86 399.10 C 463.32 407.07 462.78 415.05 462.93 423.02 C 462.78 433.47 463.33 443.92 462.83 454.37 C 490.82 454.36 518.81 454.40 546.80 454.35 C 546.61 435.93 546.65 417.50 546.77 399.08 C 518.80 399.11 490.83 399.08 462.86 399.10 M 236.05 484.16 C 236.18 568.76 236.13 653.37 236.07 737.98 C 263.99 738.08 291.91 737.81 319.83 738.07 C 319.73 653.44 319.67 568.79 319.86 484.16 C 291.92 484.16 263.98 484.16 236.05 484.16 M 349.44 484.16 C 349.67 515.76 349.47 547.37 349.54 578.98 C 349.48 632.00 349.65 685.03 349.46 738.05 C 377.41 737.93 405.36 737.94 433.32 738.05 C 433.11 708.36 433.29 678.66 433.23 648.96 C 433.31 594.03 433.08 539.09 433.34 484.15 C 405.37 484.16 377.41 484.15 349.44 484.16 Z" />
<path fill="#010101" opacity="1.00" d=" M 709.94 440.67 C 721.27 439.86 732.66 440.27 744.02 440.24 C 747.62 440.46 751.44 439.87 754.87 441.28 C 759.12 442.59 763.75 441.62 767.87 443.52 C 772.06 443.59 775.84 445.60 779.99 445.91 C 783.86 447.54 788.02 448.37 792.02 449.65 C 794.90 451.04 798.00 451.94 801.00 453.08 C 802.32 453.72 803.67 454.30 805.05 454.88 C 806.32 455.57 807.63 456.14 808.97 456.73 C 810.62 457.72 812.42 458.47 814.07 459.52 C 814.56 459.62 815.54 459.81 816.03 459.91 C 816.47 460.22 817.35 460.85 817.79 461.16 C 819.60 461.87 821.28 462.84 822.99 463.77 C 824.28 464.66 825.63 465.47 826.94 466.36 C 830.42 468.32 833.80 470.47 837.18 472.61 C 839.44 474.41 841.71 476.21 844.05 477.92 C 861.85 491.20 877.10 507.98 888.70 526.91 C 889.41 527.95 890.05 529.05 890.70 530.17 C 891.55 531.42 892.37 532.69 893.23 533.96 C 894.11 535.61 895.04 537.25 895.87 538.95 C 897.36 541.95 898.56 545.12 900.34 547.98 C 900.48 548.43 900.74 549.33 900.87 549.78 C 902.95 552.87 903.87 556.53 905.44 559.88 C 905.96 561.59 906.41 563.37 907.34 564.94 C 907.84 566.94 908.19 569.06 909.41 570.80 C 909.49 571.97 909.59 573.15 909.69 574.34 C 910.19 575.14 910.70 575.95 911.23 576.76 C 911.00 579.98 912.63 582.81 913.09 585.90 C 913.22 589.74 915.17 593.21 915.02 597.10 C 916.62 605.30 915.80 613.69 916.00 622.00 C 915.77 634.36 916.91 646.89 914.13 659.02 C 912.82 662.18 913.60 665.86 911.68 668.83 C 911.49 670.22 911.33 671.62 911.18 673.03 C 909.96 674.88 909.42 677.00 909.29 679.19 C 907.64 682.62 906.76 686.38 905.45 689.96 C 904.83 691.19 904.31 692.47 903.84 693.77 C 903.18 695.35 902.54 696.92 901.88 698.51 C 901.29 699.77 900.76 701.07 900.27 702.38 C 898.81 705.26 897.42 708.18 895.83 711.00 C 894.95 712.67 894.05 714.34 893.12 715.99 C 888.37 724.07 883.31 732.02 877.25 739.19 C 876.54 740.15 875.86 741.14 875.18 742.12 C 874.55 742.82 873.94 743.53 873.34 744.26 C 863.48 755.19 852.89 765.48 841.03 774.24 C 838.73 775.66 836.54 777.25 834.29 778.75 C 833.40 779.38 832.50 780.00 831.62 780.64 C 831.79 810.09 831.65 839.53 831.69 868.98 C 831.53 890.97 832.04 912.99 831.43 934.97 C 828.05 934.60 825.81 931.75 822.95 930.24 C 818.60 927.21 814.16 924.31 809.75 921.37 C 808.17 920.17 806.49 919.12 804.84 918.05 C 803.90 917.39 802.96 916.75 802.02 916.13 C 800.76 915.28 799.49 914.47 798.28 913.59 C 795.08 911.55 792.00 909.33 788.80 907.31 C 787.57 906.39 786.30 905.56 785.06 904.70 C 782.71 903.18 780.42 901.58 778.07 900.08 C 775.95 898.60 773.77 897.22 771.68 895.73 C 770.39 894.89 769.11 894.06 767.83 893.22 C 766.90 892.53 765.95 891.88 765.00 891.26 C 763.72 890.39 762.42 889.57 761.18 888.68 C 756.74 885.80 752.40 882.78 748.00 879.86 C 745.72 878.21 743.39 876.63 740.98 875.21 C 737.92 873.00 734.67 871.08 731.73 868.72 C 731.32 869.06 730.48 869.74 730.06 870.08 C 724.23 873.86 718.57 877.92 712.69 881.64 C 711.50 882.54 710.24 883.34 709.01 884.19 C 708.02 884.82 707.05 885.48 706.10 886.17 C 704.77 887.01 703.45 887.85 702.14 888.72 C 700.49 889.95 698.78 891.08 697.03 892.16 C 694.39 894.10 691.60 895.82 688.89 897.67 C 686.40 899.41 683.85 901.09 681.31 902.76 C 671.24 909.63 661.05 916.32 650.99 923.20 C 645.56 926.74 640.20 930.39 634.88 934.08 C 634.01 934.72 632.83 934.53 631.83 934.74 C 631.68 883.27 631.76 831.80 631.80 780.33 C 626.18 777.07 621.00 773.13 615.92 769.10 C 612.95 767.05 610.46 764.43 607.75 762.08 C 603.84 758.73 600.31 754.98 596.61 751.42 C 593.71 747.42 589.75 744.35 586.96 740.28 C 584.74 737.13 581.95 734.41 580.10 731.01 C 579.32 730.01 578.55 729.03 577.76 728.07 C 576.54 725.99 575.21 723.98 573.85 722.00 C 572.17 719.00 570.47 716.02 568.62 713.14 C 566.60 708.67 564.12 704.41 562.24 699.88 C 561.32 697.98 560.59 696.00 559.62 694.15 C 559.12 692.65 558.61 691.16 557.95 689.75 C 557.43 688.00 556.99 686.24 555.95 684.73 C 555.73 683.53 555.51 682.34 555.31 681.16 C 553.75 679.00 554.09 676.11 552.61 673.92 C 552.05 671.54 552.20 668.91 550.68 666.88 C 550.28 663.84 550.43 660.63 548.79 657.92 C 548.81 653.20 547.97 648.63 546.91 644.07 C 546.50 631.36 546.72 618.62 546.81 605.90 C 548.10 601.96 548.65 597.88 548.68 593.75 C 549.72 590.30 550.48 586.81 550.72 583.22 C 552.66 580.81 551.50 577.32 553.40 574.90 C 554.21 569.78 556.56 565.10 557.90 560.12 C 558.91 558.21 559.42 556.10 560.37 554.16 C 561.51 551.42 562.85 548.76 564.18 546.10 C 564.99 544.31 565.87 542.54 566.65 540.74 C 567.58 539.11 568.31 537.38 569.26 535.77 C 571.46 532.19 573.72 528.64 575.73 524.95 C 580.83 517.41 586.26 510.09 592.23 503.22 C 594.38 500.69 596.66 498.27 598.92 495.83 C 600.21 494.53 601.52 493.25 602.84 491.98 C 604.76 490.17 606.70 488.39 608.66 486.62 C 609.38 486.03 610.10 485.44 610.83 484.85 C 612.04 483.77 613.26 482.70 614.47 481.62 C 615.30 481.01 616.12 480.38 616.93 479.73 C 618.91 478.21 620.95 476.75 623.00 475.31 C 629.38 470.00 636.86 466.27 643.87 461.88 C 652.50 457.96 660.80 453.18 669.93 450.44 C 672.02 449.15 674.70 449.26 676.67 447.76 C 678.17 447.50 679.68 447.32 681.21 447.18 C 681.94 446.68 682.69 446.20 683.44 445.71 C 684.94 445.60 686.45 445.47 687.98 445.31 C 690.93 443.07 694.94 444.56 697.94 442.57 C 701.91 441.73 706.24 442.64 709.94 440.67 M 719.03 471.21 C 714.05 472.07 708.65 470.70 704.03 473.17 C 699.46 472.85 695.49 475.39 690.99 475.52 C 688.81 477.52 685.40 476.29 683.20 478.25 C 681.41 478.76 679.60 479.21 677.93 480.04 C 676.24 480.57 674.58 481.15 672.95 481.83 C 669.45 482.97 666.36 485.04 662.90 486.24 C 662.57 486.49 661.90 486.99 661.56 487.24 C 658.53 488.25 655.86 490.02 653.11 491.59 C 651.79 492.49 650.42 493.30 649.10 494.18 C 646.65 495.54 644.27 497.02 642.05 498.72 C 629.43 507.69 618.14 518.46 608.74 530.77 C 606.77 534.00 603.99 536.68 602.22 540.05 C 599.72 543.94 597.35 547.91 595.11 551.95 C 594.25 553.59 593.52 555.30 592.64 556.93 C 592.07 558.22 591.47 559.50 590.84 560.76 C 588.85 564.74 587.47 568.99 585.79 573.10 C 585.18 575.13 584.33 577.09 583.66 579.11 C 583.36 581.20 583.17 583.38 581.77 585.09 C 581.61 586.68 581.49 588.27 581.33 589.87 C 579.38 592.48 580.22 595.93 579.09 598.84 C 578.28 600.79 578.16 602.91 578.18 605.01 C 578.16 611.72 575.96 618.24 576.41 624.98 C 575.98 632.43 578.35 639.65 578.21 647.09 C 578.14 648.79 578.49 650.50 579.42 651.96 C 579.68 653.95 579.77 655.96 579.88 657.98 C 582.16 660.92 581.15 664.92 583.17 667.99 C 583.34 669.30 583.50 670.64 583.68 671.97 C 586.15 677.18 587.55 682.84 590.00 688.06 C 591.00 689.98 591.94 691.93 592.82 693.92 C 593.69 695.54 594.42 697.24 595.29 698.88 C 595.87 699.91 596.48 700.96 597.10 701.99 C 598.80 704.94 600.52 707.89 602.37 710.77 C 602.97 711.75 603.58 712.75 604.24 713.72 C 605.81 715.58 607.33 717.50 608.64 719.57 C 611.37 723.40 614.76 726.68 617.69 730.35 C 620.41 733.60 623.47 736.54 626.64 739.35 C 629.16 741.42 631.59 743.60 634.01 745.79 C 635.13 746.65 636.28 747.47 637.41 748.34 C 640.72 750.61 643.82 753.21 647.25 755.33 C 650.89 757.29 654.27 759.73 657.93 761.67 C 659.64 762.56 661.43 763.33 663.12 764.30 C 663.57 764.46 664.48 764.79 664.94 764.95 C 666.22 765.66 667.54 766.31 668.87 766.98 C 673.37 768.92 677.98 770.57 682.61 772.15 C 684.55 773.33 686.78 773.60 688.99 773.87 C 691.15 775.22 693.71 775.34 696.19 775.62 C 699.66 777.95 704.23 776.68 707.91 778.68 C 718.95 778.73 729.93 782.10 740.97 779.98 C 746.25 778.85 751.67 778.97 757.01 778.46 C 760.02 776.34 764.18 777.99 767.10 775.70 C 769.72 775.36 772.45 775.20 774.75 773.73 C 776.07 773.57 777.43 773.44 778.78 773.28 C 780.27 772.20 782.06 771.72 783.81 771.21 C 785.79 770.16 788.12 769.90 789.97 768.57 C 790.99 768.37 792.02 768.19 793.07 768.03 C 793.43 767.72 794.14 767.09 794.49 766.77 C 800.54 764.38 806.37 761.42 811.85 757.89 C 814.62 756.27 817.35 754.59 820.03 752.82 C 829.87 745.59 839.49 737.87 847.40 728.50 C 852.36 723.04 856.73 717.08 860.95 711.04 C 861.54 709.99 862.14 708.94 862.75 707.90 C 863.62 706.55 864.48 705.19 865.40 703.87 C 866.96 700.97 868.70 698.17 870.02 695.15 C 870.66 693.82 871.24 692.45 871.85 691.11 C 872.77 689.48 873.53 687.77 874.51 686.18 C 874.62 685.66 874.83 684.61 874.94 684.08 C 875.74 682.45 876.41 680.76 876.97 679.03 C 877.84 677.31 878.34 675.44 878.59 673.54 C 878.95 673.17 879.66 672.44 880.02 672.07 C 880.14 670.42 880.29 668.77 880.56 667.15 C 882.22 662.63 883.54 657.82 883.84 652.98 C 885.49 649.88 885.37 646.35 885.41 642.95 C 885.33 637.56 887.50 632.41 887.16 627.01 C 886.90 622.04 887.25 616.92 885.68 612.13 C 885.36 608.43 885.36 604.72 885.30 601.01 C 883.09 597.76 884.08 593.70 882.58 590.23 C 880.01 579.51 876.77 568.83 871.68 559.00 C 871.09 557.67 870.49 556.37 869.84 555.09 C 869.06 553.32 868.26 551.57 867.44 549.84 C 864.28 545.45 861.89 540.56 858.71 536.19 C 856.73 533.82 854.98 531.28 853.32 528.68 C 851.03 526.24 848.83 523.72 846.65 521.20 C 846.08 520.50 845.51 519.81 844.95 519.14 C 842.70 516.64 840.31 514.29 837.85 512.02 C 837.14 511.47 836.44 510.92 835.75 510.39 C 832.23 507.22 828.81 503.89 824.78 501.35 C 822.84 499.86 820.92 498.37 818.97 496.91 C 817.97 496.28 816.98 495.64 816.01 495.01 C 812.55 493.16 809.27 491.00 805.93 488.95 C 804.63 488.31 803.31 487.72 801.98 487.17 C 800.30 486.24 798.54 485.48 796.91 484.50 C 796.43 484.34 795.48 484.00 795.01 483.83 C 792.88 482.40 790.34 481.88 788.06 480.79 C 787.49 480.67 786.34 480.42 785.76 480.30 C 783.63 478.95 781.01 478.76 778.92 477.38 C 773.90 476.42 768.99 474.98 764.10 473.57 C 759.92 473.62 756.15 471.38 751.97 471.63 C 749.15 471.57 746.34 471.41 743.54 471.29 L 743.61 470.64 C 735.47 469.94 727.02 469.02 719.03 471.21 M 661.74 795.77 C 661.26 823.95 661.63 852.15 661.55 880.34 C 664.27 878.48 667.02 876.65 669.77 874.82 C 671.06 873.97 672.35 873.12 673.66 872.31 C 678.38 869.00 683.34 866.03 688.06 862.73 C 689.01 862.09 689.97 861.49 690.92 860.85 C 692.28 859.96 693.65 859.08 695.04 858.23 C 695.96 857.57 696.89 856.93 697.83 856.30 C 699.14 855.41 700.50 854.58 701.78 853.65 C 703.16 852.78 704.53 851.90 705.92 851.05 C 708.89 848.90 712.02 847.00 715.05 844.95 C 717.69 843.20 720.36 841.52 722.95 839.71 C 723.93 839.06 724.94 838.45 725.93 837.82 C 728.08 836.71 729.89 833.96 732.54 834.45 C 736.43 836.91 740.17 839.60 744.05 842.10 C 745.40 842.99 746.76 843.91 748.15 844.78 C 752.76 847.79 757.31 850.89 761.95 853.87 C 767.63 857.68 773.38 861.39 779.05 865.23 C 781.42 866.71 783.74 868.29 786.11 869.81 C 791.22 873.48 796.85 876.42 801.67 880.50 C 802.25 852.50 801.68 824.46 801.96 796.45 C 800.04 797.72 797.60 797.87 795.77 799.29 C 794.67 799.41 793.58 799.53 792.50 799.65 C 791.82 800.18 791.14 800.73 790.47 801.28 C 789.37 801.36 788.29 801.46 787.22 801.59 C 785.16 803.53 782.00 802.69 779.83 804.40 C 777.28 804.91 774.50 804.85 772.28 806.39 C 767.65 806.21 763.52 808.66 758.92 808.49 C 755.22 808.41 751.79 810.25 748.10 810.22 C 738.39 810.33 728.68 810.31 718.97 810.26 C 712.47 810.76 706.40 807.80 699.89 808.24 C 697.18 806.50 693.92 806.72 690.87 806.34 C 688.77 804.61 685.92 804.92 683.40 804.53 C 683.09 804.25 682.47 803.68 682.16 803.39 C 678.93 803.31 676.12 801.68 673.06 800.94 C 671.43 800.09 669.67 799.60 667.90 799.20 C 666.37 798.18 664.57 797.80 662.80 797.47 C 662.54 797.05 662.00 796.20 661.74 795.77 Z" />
<path fill="#010101" opacity="1.00" d=" M 716.91 497.68 C 717.92 496.42 719.68 497.05 721.08 496.87 C 729.58 497.06 738.10 496.54 746.59 497.19 C 746.61 506.55 746.76 515.92 746.50 525.28 C 750.05 525.31 753.63 525.28 757.18 525.62 C 758.93 526.85 761.10 526.98 763.12 527.47 C 767.27 528.86 771.18 530.86 775.05 532.89 C 776.01 533.51 776.98 534.11 777.97 534.74 C 784.72 539.26 790.47 545.15 794.80 552.03 C 795.62 553.36 796.38 554.75 797.21 556.09 C 797.82 557.42 798.44 558.77 799.18 560.06 C 799.71 561.73 800.25 563.43 801.11 564.98 C 801.48 568.73 803.57 572.15 803.32 575.98 C 803.36 578.42 803.33 580.87 803.28 583.33 C 793.48 583.48 783.67 583.45 773.88 583.35 C 772.82 579.35 772.81 574.89 770.62 571.31 C 770.46 570.81 770.14 569.82 769.98 569.32 C 766.91 564.60 762.98 560.12 757.53 558.17 C 757.15 557.86 756.39 557.24 756.02 556.93 C 754.33 556.73 752.66 556.54 751.01 556.29 C 748.66 554.61 745.68 555.17 742.99 555.07 C 733.65 555.25 724.28 554.79 714.96 555.29 C 711.97 556.41 708.56 556.37 705.85 558.14 C 705.43 558.30 704.59 558.62 704.17 558.78 C 703.18 559.42 702.18 560.05 701.19 560.68 C 700.20 561.53 699.21 562.37 698.24 563.25 C 697.34 564.23 696.46 565.24 695.57 566.23 C 694.26 568.52 693.00 570.82 691.75 573.14 C 691.58 574.42 691.41 575.72 691.25 577.02 C 688.11 581.85 690.97 587.20 691.82 592.20 C 692.43 593.41 693.03 594.63 693.62 595.87 C 694.33 597.00 695.01 598.15 695.66 599.34 C 697.03 600.93 698.49 602.45 700.07 603.85 C 701.32 604.70 702.59 605.54 703.80 606.48 C 706.13 607.56 708.43 608.79 711.06 608.97 C 715.77 611.11 721.00 610.18 726.00 610.37 C 736.35 610.52 746.72 610.02 757.06 610.68 C 759.48 612.39 762.62 611.97 765.20 613.32 C 768.59 614.56 771.80 616.26 775.00 617.94 C 775.97 618.58 776.96 619.19 777.96 619.83 C 780.96 621.86 783.70 624.24 786.28 626.78 C 786.92 627.45 787.57 628.11 788.24 628.77 C 788.90 629.46 789.58 630.14 790.28 630.83 C 792.00 633.12 793.60 635.50 795.34 637.80 C 796.60 640.23 797.85 642.68 799.15 645.10 C 799.70 646.77 800.29 648.45 801.13 650.01 C 801.35 653.78 803.60 657.13 803.32 660.96 C 803.23 666.68 803.65 672.45 803.02 678.15 C 801.67 682.12 800.90 686.27 799.31 690.18 C 798.36 691.81 797.63 693.56 796.71 695.21 C 795.42 697.65 793.76 699.86 792.26 702.18 C 786.06 710.52 777.54 716.94 768.10 721.19 C 766.41 721.70 764.79 722.36 763.24 723.18 C 761.85 723.34 760.49 723.51 759.14 723.73 C 755.37 726.13 750.72 724.94 746.53 725.23 C 746.68 734.65 746.70 744.07 746.53 753.49 C 736.73 753.67 726.92 753.59 717.11 753.54 C 716.55 744.12 716.90 734.67 716.92 725.24 C 712.62 725.00 707.96 726.03 704.07 723.69 C 702.71 723.48 701.37 723.31 700.04 723.11 C 685.01 717.63 671.78 706.72 665.11 691.99 C 664.22 690.01 663.54 687.95 662.55 686.03 C 662.18 684.35 661.87 682.66 661.54 680.99 C 659.13 676.88 660.47 671.75 660.24 667.21 C 670.00 667.01 679.77 667.12 689.54 667.14 C 690.03 670.59 691.29 673.87 691.83 677.32 C 692.42 678.59 692.99 679.87 693.56 681.17 C 694.30 682.18 695.02 683.23 695.70 684.30 C 697.81 687.28 700.71 689.51 703.75 691.48 C 707.56 693.56 711.83 694.50 716.03 695.40 C 726.00 695.55 735.97 695.41 745.93 695.46 C 748.34 695.55 750.58 694.56 752.83 693.85 C 753.87 693.75 754.92 693.67 755.98 693.58 C 757.55 692.51 759.27 691.68 760.89 690.68 C 762.83 689.39 764.59 687.86 766.33 686.32 C 768.02 683.95 769.63 681.52 770.91 678.91 C 772.31 676.45 772.02 673.48 773.32 670.99 C 774.05 664.75 772.03 658.34 768.85 653.00 C 768.23 652.01 767.62 651.04 767.02 650.06 C 764.30 647.20 761.20 644.60 757.45 643.22 C 757.10 642.93 756.40 642.34 756.05 642.05 C 754.39 641.83 752.73 641.59 751.11 641.28 C 749.28 640.10 747.06 640.14 744.98 640.14 C 734.00 640.16 723.02 640.15 712.04 640.14 C 709.29 640.09 706.37 640.10 703.99 638.55 C 702.71 638.39 701.44 638.22 700.19 638.07 C 697.39 636.71 694.49 635.61 691.64 634.39 C 687.06 631.78 682.64 628.86 678.65 625.39 C 673.13 620.00 668.01 613.85 665.25 606.57 C 664.96 606.19 664.39 605.44 664.11 605.07 C 663.71 603.61 663.31 602.17 662.53 600.89 C 662.16 599.21 661.89 597.51 661.64 595.83 C 661.34 595.46 660.74 594.71 660.44 594.34 C 660.04 586.58 659.86 578.77 660.56 571.02 C 661.97 569.22 661.86 566.85 662.57 564.78 C 663.55 562.10 664.68 559.47 665.85 556.87 C 671.58 545.80 680.77 536.64 691.89 530.98 C 694.57 529.75 697.30 528.61 700.06 527.55 C 702.10 527.00 704.32 526.91 706.12 525.65 C 709.71 525.28 713.32 525.32 716.93 525.26 C 716.79 516.07 716.77 506.87 716.91 497.68 Z" />
<path fill="#010101" opacity="1.00" d=" M 206.44 824.42 C 206.29 814.54 206.21 804.64 206.46 794.77 C 339.20 794.68 471.93 794.69 604.66 794.76 C 604.96 804.63 604.82 814.51 604.73 824.39 C 514.50 824.62 424.26 824.42 334.03 824.49 C 291.50 824.44 248.97 824.58 206.44 824.42 Z" />
<path fill="#010101" opacity="1.00" d=" M 206.47 881.20 C 206.21 871.31 206.26 861.41 206.45 851.53 C 307.63 851.33 408.80 851.51 509.98 851.44 C 541.56 851.53 573.15 851.28 604.74 851.57 C 604.81 861.44 605.00 871.33 604.63 881.20 C 471.91 881.25 339.19 881.26 206.47 881.20 Z" />
</g>
</svg>
