<?xml version="1.0" encoding="UTF-8" ?>
<!DOCTYPE svg PUBLIC "-//W3C//DTD SVG 1.1//EN" "http://www.w3.org/Graphics/SVG/1.1/DTD/svg11.dtd">
<svg width="521pt" height="579pt" viewBox="0 0 521 579" version="1.1" xmlns="http://www.w3.org/2000/svg">
<g id="#000000ff">
<path fill="#000000" opacity="1.00" d=" M 57.43 24.30 C 58.56 16.26 65.76 9.54 73.89 9.12 C 79.29 8.87 84.71 8.94 90.12 9.07 C 98.39 9.21 105.95 15.85 107.20 24.01 C 107.79 28.16 107.49 32.36 107.52 36.53 C 124.11 36.53 140.70 36.56 157.29 36.51 C 157.33 32.30 156.98 28.04 157.62 23.85 C 158.97 15.65 166.65 9.07 174.97 9.05 C 180.34 8.95 185.73 8.86 191.09 9.13 C 198.99 9.64 206.00 16.07 207.29 23.87 C 207.94 28.05 207.58 32.30 207.63 36.52 C 224.22 36.55 240.81 36.54 257.40 36.52 C 257.45 32.32 257.09 28.08 257.72 23.92 C 259.03 15.77 266.59 9.17 274.86 9.06 C 280.27 8.94 285.69 8.87 291.09 9.12 C 299.04 9.58 306.11 16.03 307.41 23.86 C 308.03 28.06 307.69 32.32 307.78 36.55 C 324.36 36.51 340.93 36.55 357.50 36.53 C 357.62 31.24 356.86 25.75 358.71 20.67 C 361.21 14.08 367.80 9.21 374.90 9.07 C 380.30 8.94 385.71 8.87 391.10 9.12 C 399.09 9.53 406.22 16.00 407.52 23.88 C 408.15 28.06 407.80 32.32 407.87 36.53 C 420.27 36.96 433.31 34.87 445.04 40.02 C 461.68 46.77 473.28 64.05 473.11 82.03 C 473.17 129.04 473.09 176.04 473.15 223.05 C 473.10 226.28 473.41 229.58 472.68 232.77 C 471.34 237.34 465.19 239.32 461.38 236.50 C 458.86 234.92 458.01 231.83 458.12 229.01 C 458.13 201.97 458.14 174.92 458.12 147.87 C 310.42 147.86 162.71 147.87 15.00 147.87 C 15.00 220.24 15.00 292.62 15.01 364.99 C 15.41 368.91 12.91 373.09 8.83 373.69 C 4.75 374.57 0.95 371.49 0.00 367.62 L 0.00 80.48 C 0.52 62.76 12.29 46.11 28.83 39.75 C 37.76 35.87 47.66 36.52 57.15 36.54 C 57.19 32.46 56.94 28.36 57.43 24.30 M 74.18 24.27 C 72.24 24.92 72.12 27.19 72.15 28.90 C 72.20 40.29 72.11 51.68 72.19 63.07 C 72.03 64.81 73.18 66.76 75.09 66.77 C 79.76 66.99 84.44 66.91 89.11 66.81 C 91.18 67.00 92.72 65.05 92.50 63.08 C 92.56 51.39 92.54 39.70 92.51 28.01 C 92.76 26.01 91.34 23.86 89.15 24.06 C 84.17 24.04 79.13 23.70 74.18 24.27 M 174.22 24.29 C 172.29 25.00 172.24 27.28 172.26 29.00 C 172.32 40.36 172.22 51.73 172.30 63.09 C 172.16 64.77 173.21 66.68 175.05 66.75 C 180.00 66.97 184.99 66.98 189.94 66.74 C 191.77 66.63 192.75 64.71 192.62 63.05 C 192.67 51.35 192.66 39.65 192.62 27.95 C 192.88 25.90 191.32 23.80 189.12 24.05 C 184.16 24.05 179.15 23.67 174.22 24.29 M 274.23 24.33 C 272.05 25.31 272.43 28.00 272.36 29.94 C 272.45 40.97 272.32 52.01 272.41 63.04 C 272.16 65.05 273.75 67.04 275.87 66.82 C 280.56 66.89 285.26 67.01 289.94 66.75 C 291.81 66.70 292.87 64.75 292.73 63.05 C 292.78 51.32 292.77 39.59 292.73 27.86 C 292.98 25.77 291.30 23.78 289.12 24.04 C 284.17 24.08 279.14 23.62 274.23 24.33 M 374.31 24.34 C 372.11 25.35 372.57 28.06 372.47 30.03 C 372.56 41.03 372.42 52.03 372.53 63.03 C 372.25 65.00 373.79 66.98 375.87 66.81 C 380.55 66.92 385.26 66.99 389.95 66.77 C 391.82 66.76 392.98 64.85 392.83 63.12 C 392.90 51.39 392.88 39.66 392.84 27.93 C 393.13 25.75 391.35 23.71 389.09 24.03 C 384.17 24.09 379.18 23.62 374.31 24.34 M 15.06 80.97 C 14.92 98.27 15.04 115.57 15.00 132.87 C 162.71 132.86 310.42 132.87 458.13 132.86 C 458.10 115.58 458.21 98.30 458.07 81.03 C 457.83 68.50 448.96 56.78 437.02 53.03 C 427.57 50.28 417.57 52.01 407.87 51.54 C 407.75 56.49 408.13 61.46 407.63 66.40 C 406.52 74.90 398.66 81.82 390.08 81.84 C 384.72 81.87 379.34 81.99 373.98 81.76 C 365.73 81.15 358.49 74.15 357.67 65.90 C 357.27 61.12 357.60 56.32 357.49 51.53 C 340.91 51.54 324.33 51.53 307.76 51.54 C 307.64 56.47 308.02 61.42 307.53 66.33 C 306.45 74.80 298.67 81.75 290.13 81.83 C 284.75 81.88 279.35 81.98 273.98 81.76 C 265.57 81.21 258.25 74.01 257.52 65.63 C 257.21 60.94 257.47 56.23 257.38 51.54 C 240.80 51.53 224.23 51.53 207.65 51.54 C 207.53 56.43 207.90 61.35 207.43 66.23 C 206.41 74.73 198.62 81.73 190.05 81.83 C 184.69 81.89 179.32 81.97 173.96 81.77 C 165.55 81.26 158.19 74.11 157.42 65.72 C 157.09 61.00 157.36 56.27 157.28 51.54 C 140.70 51.53 124.11 51.53 107.53 51.54 C 107.44 56.32 107.73 61.11 107.37 65.88 C 106.50 74.48 98.71 81.68 90.06 81.82 C 84.69 81.90 79.32 81.96 73.96 81.78 C 65.54 81.32 58.13 74.19 57.31 65.80 C 56.97 61.05 57.24 56.29 57.16 51.54 C 51.40 51.68 45.59 51.10 39.87 52.07 C 26.24 54.44 15.27 67.10 15.06 80.97 Z" />
<path fill="#000000" opacity="1.00" d=" M 55.35 170.50 C 57.77 169.47 60.48 169.78 63.04 169.71 C 70.37 169.84 77.70 169.57 85.02 169.82 C 89.56 169.83 93.16 174.67 91.93 179.02 C 91.16 182.56 87.60 185.01 84.03 184.73 C 75.68 184.74 67.32 184.76 58.97 184.72 C 55.44 184.94 52.01 182.41 51.29 178.93 C 50.46 175.61 52.27 171.94 55.35 170.50 Z" />
<path fill="#000000" opacity="1.00" d=" M 136.19 170.21 C 140.04 169.31 144.05 169.86 147.97 169.73 C 154.00 169.87 160.06 169.45 166.08 169.93 C 171.40 170.55 174.17 177.61 170.77 181.73 C 168.10 185.58 163.00 184.67 158.98 184.75 C 151.56 184.51 144.08 185.14 136.69 184.45 C 129.82 182.99 129.45 172.18 136.19 170.21 Z" />
<path fill="#000000" opacity="1.00" d=" M 216.15 170.27 C 219.02 169.43 222.05 169.79 225.00 169.72 C 231.67 169.82 238.35 169.59 245.01 169.80 C 248.90 169.74 252.34 173.16 252.37 177.04 C 252.59 181.02 249.11 184.76 245.10 184.69 C 236.38 184.78 227.66 184.74 218.95 184.71 C 215.47 184.85 212.19 182.27 211.51 178.86 C 210.67 175.35 212.77 171.48 216.15 170.27 Z" />
<path fill="#000000" opacity="1.00" d=" M 296.21 170.29 C 305.05 169.03 314.13 170.08 323.07 169.72 C 326.84 169.32 331.12 171.13 332.16 175.07 C 333.76 179.63 329.87 184.91 325.04 184.70 C 316.35 184.77 307.64 184.76 298.95 184.70 C 295.55 184.81 292.34 182.27 291.64 178.95 C 290.74 175.44 292.83 171.54 296.21 170.29 Z" />
<path fill="#000000" opacity="1.00" d=" M 376.25 170.31 C 379.05 169.42 382.05 169.79 384.94 169.72 C 391.97 169.86 399.01 169.50 406.03 169.88 C 409.96 170.16 413.04 174.09 412.57 177.97 C 412.29 181.72 408.84 184.84 405.08 184.71 C 396.70 184.78 388.32 184.71 379.94 184.74 C 377.14 184.92 374.21 183.73 372.72 181.27 C 370.19 177.52 372.02 171.87 376.25 170.31 Z" />
<path fill="#000000" opacity="1.00" d=" M 57.46 207.61 C 64.97 207.23 72.51 207.60 80.02 207.44 C 83.24 207.55 87.00 206.93 89.58 209.34 C 92.95 212.10 92.96 217.80 89.61 220.58 C 87.30 222.80 83.89 222.45 80.95 222.49 C 73.31 222.36 65.67 222.63 58.04 222.38 C 54.23 222.29 51.03 218.75 51.10 214.99 C 51.02 211.41 53.88 208.01 57.46 207.61 Z" />
<path fill="#000000" opacity="1.00" d=" M 137.44 207.63 C 144.95 207.21 152.49 207.61 160.01 207.45 C 163.25 207.55 167.02 206.92 169.65 209.29 C 173.10 212.07 173.09 217.88 169.64 220.65 C 167.58 222.60 164.58 222.48 161.95 222.49 C 154.30 222.40 146.65 222.54 139.00 222.44 C 135.29 222.65 131.77 219.77 131.31 216.08 C 130.61 212.21 133.53 208.13 137.44 207.63 Z" />
<path fill="#000000" opacity="1.00" d=" M 217.42 207.65 C 224.91 207.18 232.43 207.63 239.93 207.45 C 243.21 207.56 247.04 206.88 249.73 209.27 C 253.01 211.89 253.26 217.32 250.21 220.22 C 247.90 222.80 244.16 222.48 241.01 222.49 C 233.67 222.39 226.33 222.56 218.99 222.44 C 215.25 222.62 211.79 219.61 211.40 215.91 C 210.83 212.14 213.63 208.21 217.42 207.65 Z" />
<path fill="#000000" opacity="1.00" d=" M 297.40 207.68 C 306.28 207.19 315.20 207.59 324.09 207.47 C 327.65 207.19 331.33 209.40 332.22 212.97 C 333.66 217.51 329.78 222.64 325.01 222.43 C 316.35 222.51 307.68 222.50 299.02 222.43 C 295.35 222.57 291.96 219.65 291.52 216.03 C 290.89 212.26 293.63 208.31 297.40 207.68 Z" />
<path fill="#000000" opacity="1.00" d=" M 377.48 207.68 C 386.32 207.17 395.22 207.60 404.08 207.46 C 407.70 207.16 411.49 209.38 412.35 213.04 C 413.75 217.63 409.78 222.73 404.97 222.43 C 396.65 222.53 388.32 222.45 380.00 222.47 C 376.78 222.70 373.42 221.03 372.19 217.95 C 370.22 213.85 372.98 208.44 377.48 207.68 Z" />
<path fill="#000000" opacity="1.00" d=" M 283.00 260.98 C 290.14 253.69 301.18 250.60 311.07 253.16 C 322.30 255.77 331.36 265.62 333.04 277.03 C 334.71 286.55 331.20 296.64 324.23 303.28 C 290.90 336.59 257.59 369.92 224.27 403.24 C 220.23 407.26 216.32 411.71 210.99 414.07 C 200.33 419.26 186.62 417.17 178.10 408.86 C 165.06 395.96 152.14 382.92 139.16 369.96 C 133.08 364.04 129.73 355.46 130.33 346.98 C 130.85 336.45 137.58 326.59 147.12 322.16 C 157.70 317.00 171.27 319.04 179.80 327.16 C 186.06 333.23 192.14 339.49 198.34 345.62 C 226.58 317.42 254.76 289.18 283.00 260.98 M 301.45 267.50 C 297.98 268.04 294.96 270.05 292.59 272.56 C 263.97 301.27 235.24 329.87 206.62 358.58 C 204.43 360.69 202.27 363.48 198.98 363.68 C 196.38 364.01 194.01 362.60 192.29 360.79 C 184.94 353.45 177.62 346.07 170.24 338.75 C 167.31 335.78 163.11 334.07 158.93 334.37 C 153.21 334.60 147.87 338.59 146.09 344.04 C 144.19 349.28 145.71 355.46 149.71 359.31 C 162.53 372.11 175.30 384.98 188.18 397.73 C 193.74 403.49 203.81 403.09 209.11 397.18 C 243.97 362.35 278.79 327.49 313.65 292.66 C 318.37 288.33 319.88 280.88 316.84 275.17 C 314.15 269.57 307.52 266.39 301.45 267.50 Z" />
<path fill="#000000" opacity="1.00" d=" M 458.15 265.00 C 457.78 260.66 461.71 256.64 466.07 257.04 C 470.10 257.16 473.40 260.98 473.11 264.99 C 473.18 281.63 473.09 298.28 473.16 314.92 C 483.03 321.85 492.18 329.96 499.29 339.75 C 511.88 356.45 519.26 377.04 519.92 397.96 C 520.69 416.22 516.45 434.66 507.74 450.73 C 499.37 466.34 486.87 479.63 471.99 489.21 C 472.08 518.30 471.93 547.40 472.06 576.50 C 453.41 563.88 434.68 551.38 416.00 538.81 C 397.37 551.38 378.66 563.84 360.02 576.39 C 359.90 547.32 360.09 518.25 359.93 489.17 C 347.65 481.24 337.03 470.81 328.93 458.64 C 259.27 458.54 189.62 458.64 119.97 458.59 C 115.67 459.01 111.43 455.46 111.60 451.04 C 111.48 446.63 115.74 443.10 120.03 443.60 C 186.96 443.65 253.89 443.51 320.82 443.66 C 310.64 421.12 309.32 394.89 316.55 371.30 C 322.39 352.75 333.37 335.81 348.14 323.14 C 363.31 310.21 382.16 301.45 401.98 298.93 C 420.95 296.35 440.64 299.06 458.14 306.84 C 458.13 292.89 458.10 278.94 458.15 265.00 M 410.10 314.19 C 393.81 315.32 377.80 320.99 364.55 330.58 C 348.47 342.07 336.47 359.19 331.31 378.29 C 326.04 396.48 327.14 416.38 334.04 434.00 C 340.68 451.29 353.04 466.32 368.70 476.23 C 384.29 486.14 403.06 491.06 421.51 489.80 C 441.73 488.60 461.47 480.12 476.21 466.22 C 487.84 455.37 496.38 441.27 500.65 425.96 C 505.64 408.67 505.01 389.85 499.02 372.89 C 492.80 354.82 480.41 338.93 464.39 328.49 C 448.50 317.98 429.11 312.90 410.10 314.19 M 376.01 498.00 C 376.01 514.26 376.03 530.52 376.00 546.78 C 389.34 537.99 402.64 529.15 416.00 520.41 C 429.34 529.18 442.67 537.99 456.00 546.79 C 455.96 530.52 455.99 514.26 455.99 497.99 C 442.03 503.55 426.97 506.61 411.92 505.92 C 399.58 505.51 387.47 502.47 376.01 498.00 Z" />
<path fill="#000000" opacity="1.00" d=" M 408.00 330.00 C 413.33 330.03 418.66 329.92 424.00 329.97 C 424.00 335.27 423.98 340.58 424.05 345.89 C 431.70 346.16 439.36 348.76 445.06 353.96 C 452.02 359.89 455.92 368.92 456.10 378.00 C 450.79 378.10 445.48 377.97 440.17 378.00 C 439.76 372.66 437.24 367.32 432.55 364.49 C 427.67 361.20 421.53 362.11 415.98 362.00 C 410.23 362.15 403.80 361.16 398.88 364.87 C 391.75 369.55 389.83 380.21 394.85 387.10 C 397.81 391.31 402.83 394.07 408.02 393.99 C 418.44 394.35 429.74 392.33 439.21 397.87 C 451.91 404.50 458.84 420.22 455.00 434.06 C 451.55 447.83 438.19 458.17 423.99 458.09 C 424.06 463.39 424.04 468.69 423.99 473.99 C 418.66 474.04 413.33 474.07 408.00 473.99 C 408.03 468.69 407.90 463.40 408.00 458.11 C 401.01 457.85 394.00 455.75 388.51 451.33 C 380.67 445.43 376.03 435.79 375.91 426.02 C 381.22 425.96 386.52 425.93 391.84 426.00 C 392.11 433.70 398.03 441.07 405.90 441.81 C 412.27 442.11 418.67 442.06 425.05 441.93 C 432.82 441.59 439.55 434.80 439.96 427.06 C 440.66 419.41 434.93 411.95 427.47 410.37 C 417.14 409.00 406.19 411.84 396.27 407.76 C 382.61 402.60 373.81 387.34 376.38 372.92 C 378.59 357.81 392.72 345.83 407.97 345.90 C 407.92 340.60 408.03 335.30 408.00 330.00 Z" />
<path fill="#000000" opacity="1.00" d=" M 0.00 399.39 C 0.75 396.49 2.80 393.73 5.91 393.20 C 10.10 392.13 14.76 395.49 14.88 399.85 C 15.26 412.92 14.76 426.02 15.08 439.09 C 14.92 441.75 17.42 443.76 19.97 443.56 C 40.98 443.66 62.00 443.59 83.01 443.57 C 85.54 443.57 88.39 443.77 90.20 445.79 C 93.28 448.68 93.04 454.13 89.76 456.77 C 87.94 458.45 85.35 458.59 83.01 458.62 C 62.67 458.60 42.33 458.58 22.00 458.62 C 17.62 458.71 13.05 458.11 9.31 455.67 C 4.17 452.61 0.93 447.09 0.00 441.26 L 0.00 399.39 Z" />
</g>
</svg>
