<svg id="Layer_5" enable-background="new 0 0 64 64" height="512" viewBox="0 0 64 64" width="512" xmlns="http://www.w3.org/2000/svg"><path d="m55 20h-2c-1.654 0-3 1.346-3 3v.171c-1.164.413-2 1.525-2 2.829v1.171c0 .801.312 1.555.879 2.122l1.071 1.071-1.078 9.163c-2.924-4.72-7.644-8.132-13.104-9.385l-.447-1.342c1.459-.403 2.656-1.434 3.255-2.8h.424c2.206 0 4-1.794 4-4v-5c1.103 0 2-.897 2-2v-2c0-1.103-.897-2-2-2h-.174c-.956-5.76-5.883-10-11.826-10s-10.87 4.24-11.826 10h-.174c-1.103 0-2 .897-2 2v2c0 1.103.897 2 2 2v5c0 2.206 1.794 4 4 4h.424c.6 1.366 1.797 2.398 3.255 2.8l-.448 1.343c-2.261.518-4.416 1.476-6.321 2.79l-1.97-6.117c-.006-.033-.005-.066-.012-.099-.502-2.107-3.483-3.209-6.803-2.505-2.061.437-3.783 1.476-4.607 2.777-.471.744-.625 1.536-.445 2.292.103.434.316.823.611 1.164l6.852 10.263c-1.005 2.31-1.536 4.755-1.536 7.292 0 4.264 2.444 7.961 6 9.786v1.214c0 2.206 1.794 4 4 4h3 3 16v-13.093c1.456 1.929 3.718 3.093 6.201 3.093 4.3 0 7.799-3.499 7.799-7.798v-22.202c0-1.654-1.346-3-3-3zm-5 6c0-.551.448-1 1-1h1v-2c0-.551.448-1 1-1h2c.552 0 1 .449 1 1v6h-4.586l-1.121-1.121c-.189-.189-.293-.441-.293-.708zm-16 33v2h-2.556c.344-.591.556-1.268.556-2zm1-2h-6v-4.586l1.121-1.121c.187-.186.444-.293.707-.293h1.172c.552 0 1 .449 1 1v1h2c.552 0 1 .449 1 1v2c0 .551-.448 1-1 1zm-1.721-28 .6 1.8-2.879 3.599-2.88-3.6.6-1.8h4.559zm-5.149 5.013c-.044-.001-.086-.013-.13-.013h-6c-.01 0-.019.003-.029.003 1.442-.858 3.01-1.499 4.647-1.88zm-6.13 1.987h2.537c-.342.589-.537 1.272-.537 2v1h2v-1c0-1.103.897-2 2-2s2 .897 2 2-.897 2-2 2h-6c-1.103 0-2-.897-2-2s.897-2 2-2zm-2 5.444c.591.344 1.268.556 2 .556h6c.732 0 1.409-.212 2-.556v7.686c-.482.139-.929.384-1.293.749l-1.121 1.121h-3.586c-1.4 0-2.769-.334-4-.945zm14 8.331c-.532-.478-1.23-.775-2-.775v-11c0-.472-.097-.919-.248-1.34l2.248-2.809zm5-25.775v-4c1.103 0 2 .897 2 2s-.897 2-2 2zm2-5.444c-.591-.344-1.268-.556-2-.556v-1h2zm-.204-7.556h-6.796v-7.542c3.435 1.064 6.07 3.914 6.796 7.542zm-8.796-7.95v7.95h-2v-7.95c.329-.032.662-.05 1-.05s.671.018 1 .05zm-4 .408v7.542h-6.796c.726-3.628 3.361-6.478 6.796-7.542zm-9.001 9.542h24.001v2h-24zm4.001 4v1c-.732 0-1.409.212-2 .556v-1.556zm-2 5c0-1.103.897-2 2-2v4c-1.103 0-2-.897-2-2zm4 2v-7h12v7c0 1.654-1.346 3-3 3h-6c-1.654 0-3-1.346-3-3zm-16.793 4.06c.526-.83 1.834-1.572 3.334-1.891.571-.121 1.105-.174 1.591-.174 1.415 0 2.423.448 2.751.96l.098.304c.024.205-.029.431-.188.682-.526.83-1.834 1.572-3.334 1.891-2.064.437-3.623-.018-4.202-.629l-.196-.294c-.012-.03-.036-.058-.044-.088-.052-.224.012-.479.19-.761zm2.698 3.939c.63 0 1.293-.068 1.97-.212 1.607-.341 3.002-1.05 3.932-1.962l1.903 5.909c-.446.645-.71 1.424-.71 2.266v5.794l-7.904-11.838c.263.026.532.043.809.043zm3.095 16.001c0-1.819.295-3.589.876-5.282l3.124 4.679v1.291c-.436-.39-.844-.814-1.2-1.288l-1.6 1.2c2.066 2.755 5.356 4.4 8.8 4.4h3v4h-4c-4.963 0-9-4.038-9-9zm11 13h-3c-1.103 0-2-.897-2-2v-.426c.955.271 1.959.426 3 .426h7c0 1.103-.897 2-2 2zm25.201-10c-2.21 0-4.197-1.228-5.186-3.205l-1.015-2.031v-3.764h-2v19h-6v-2.184c1.161-.414 2-1.514 2-2.816v-2c0-1.302-.839-2.402-2-2.816v-18.92c5.423 1.46 9.97 5.288 12.31 10.435l.151.331-.453 3.854 1.986.233 1.895-16.117h4.111v14.202c0 3.197-2.602 5.798-5.799 5.798z"/></svg>