<?xml version="1.0"?>
<svg xmlns="http://www.w3.org/2000/svg" width="512" height="512" viewBox="0 0 128 128"><g><path d="M94.677,82.929l-5.013-1.074-.018-.006L77.622,79.277A13.7,13.7,0,0,0,77.75,77.5V71.916A25.516,25.516,0,0,0,89.53,50.43V45.88h2.747a1.749,1.749,0,0,0,1.75-1.75v-6a1.749,1.749,0,0,0-1.75-1.75H91.014A26.953,26.953,0,0,0,70.25,10.473V6.5A1.749,1.749,0,0,0,68.5,4.75h-9A1.75,1.75,0,0,0,57.75,6.5v3.973A26.953,26.953,0,0,0,36.986,36.38H35.723a1.749,1.749,0,0,0-1.75,1.75v6a1.749,1.749,0,0,0,1.75,1.75H38.47v4.55A25.516,25.516,0,0,0,50.25,71.916V77.5a13.7,13.7,0,0,0,.128,1.777L38.354,81.849l-.013,0-5.016,1.074A13.816,13.816,0,0,0,22.44,96.37V121.5a1.75,1.75,0,0,0,1.75,1.75h79.62a1.75,1.75,0,0,0,1.75-1.75V96.37A13.815,13.815,0,0,0,94.677,82.929ZM87.514,36.38H79.25V26.13a1.75,1.75,0,1,0-3.5,0V36.38h-5.5V14.057A23.478,23.478,0,0,1,87.514,36.38ZM61.25,8.25h5.5V36.38h-5.5Zm-3.5,5.808V36.38h-5.5V26.13a1.75,1.75,0,1,0-3.5,0V36.38H40.486A23.476,23.476,0,0,1,57.75,14.058ZM37.473,39.88H90.527v2.5H37.473Zm4.5,10.55V45.88H86.03v4.55a22.03,22.03,0,0,1-44.06,0ZM64,75.95A25.394,25.394,0,0,0,74.25,73.8v3.7a10.25,10.25,0,0,1-20.5,0V73.8A25.394,25.394,0,0,0,64,75.95ZM25.94,96.37a10.3,10.3,0,0,1,8.117-10.019l2.913-.624V119.75H25.94ZM40.47,84.978l10.8-2.312a13.774,13.774,0,0,0,10.984,8.46V119.75H40.47ZM65.75,119.75V91.126a13.772,13.772,0,0,0,10.984-8.46l10.8,2.312V119.75Zm36.31,0H91.03V85.728l2.914.624A10.3,10.3,0,0,1,102.06,96.37Z"/><path d="M97.81,102.058a1.749,1.749,0,0,0-1.75,1.75v6.255a1.75,1.75,0,0,0,3.5,0v-6.255A1.75,1.75,0,0,0,97.81,102.058Z"/><path d="M55.86,98.08h-9a1.75,1.75,0,0,0,0,3.5h9a1.75,1.75,0,0,0,0-3.5Z"/></g></svg>
