<svg xmlns="http://www.w3.org/2000/svg" width="133.93" height="133.5" viewBox="0 0 133.93 133.5"><g transform="translate(0 0)"><path d="M132.716,63.612a1.966,1.966,0,0,0-2.142.426l-5.887,5.887V29.9a1.966,1.966,0,0,0-1.966-1.966h-15.1l5.483-5.483,0,0,5.283-5.283a5.995,5.995,0,0,0,0-8.477l-6.109-6.109a5.995,5.995,0,0,0-8.477,0L98.513,7.861l-6.387,6.387L78.445,27.929H17.427V8.482a1.966,1.966,0,0,0-1.966-1.966A15.479,15.479,0,0,0,0,21.977V105.47a1.97,1.97,0,0,0,.047.422,14.889,14.889,0,0,0,14.844,13.758H74.96L63.647,130.964a1.966,1.966,0,0,0,1.39,3.356h66.927a1.966,1.966,0,0,0,1.966-1.966V65.428A1.966,1.966,0,0,0,132.716,63.612ZM106.579,5.356a2.064,2.064,0,0,1,2.916,0l6.109,6.109a2.065,2.065,0,0,1,0,2.917l-3.9,3.9-9.026-9.026ZM99.9,12.031l9.026,9.026-3.607,3.607L96.3,15.638ZM130,87.516h-3.627a1.966,1.966,0,1,0,0,3.932H130v5.924h-3.627a1.966,1.966,0,1,0,0,3.932H130v5.924h-3.627a1.966,1.966,0,1,0,0,3.932H130v5.924h-3.627a1.966,1.966,0,1,0,0,3.932H130v9.376H69.783l19.856-19.856a1.966,1.966,0,0,0-2.78-2.78l-7.967,7.967h-64a10.9,10.9,0,0,1-10.95-10.606q.017-.56.087-1.11V104q.033-.261.078-.519l.01-.059q.041-.23.092-.459c.009-.042.019-.085.029-.127q.045-.193.1-.384c.019-.069.038-.137.059-.206.029-.1.059-.2.09-.3s.065-.2.1-.294c.024-.068.047-.137.073-.2.048-.129.1-.256.151-.382.015-.036.03-.073.045-.11.067-.157.137-.312.211-.465l.009-.02a11.572,11.572,0,0,1,8.044-6.29l.03-.007c.163-.033.327-.062.492-.088l.083-.014c.149-.023.3-.041.451-.058L14.3,94c.146-.015.293-.024.44-.033.047,0,.093-.008.14-.01q.289-.014.581-.015a1.966,1.966,0,0,0,1.966-1.966V77.721a1.966,1.966,0,1,0-3.932,0V90.133a15.354,15.354,0,0,0-8.83,4.273c-.256.25-.5.509-.734.773v-73.2a11.549,11.549,0,0,1,9.564-11.362V69.859h0a1.966,1.966,0,1,0,3.932,0h0v-38H74.514L63.647,42.728a1.966,1.966,0,0,0,2.78,2.78L80.649,31.285h0L93.517,18.418l9.025,9.026L101.483,28.5l0,0L61.844,68.142l-9.026-9.026L60.631,51.3a1.966,1.966,0,0,0-2.78-2.78l-9.2,9.2a1.972,1.972,0,0,0-.138.155c-.014.018-.027.037-.041.055-.028.037-.055.074-.08.113-.014.022-.027.046-.041.069s-.043.074-.062.112-.024.049-.035.075-.034.078-.049.117c-.005.014-.012.027-.017.041l-3.83,10.849-2.611,7.4a1.988,1.988,0,0,0-.078.3H35.128a1.966,1.966,0,0,0,0,3.932H89.567a1.966,1.966,0,1,0,0-3.932H50.509L62.5,72.776l.029-.012c.047-.017.092-.037.138-.057l.054-.025c.047-.024.093-.049.139-.077l.044-.026c.047-.03.093-.064.139-.1l.034-.025a1.972,1.972,0,0,0,.159-.142l40.452-40.452h17.069v42L92.636,101.976a1.966,1.966,0,0,0,0,2.78,2.011,2.011,0,0,0,.149.135,1.965,1.965,0,0,0,2.631-.135h0L130,70.173Zm-71.75-17.41-5.631,1.988-3.752-3.752,1.988-5.631Z" transform="translate(0 -0.82)" fill="#303030"/></g></svg>