<svg xmlns="http://www.w3.org/2000/svg" width="133.501" height="133.5" viewBox="0 0 133.501 133.5"><g transform="translate(0)"><path d="M136,272h4.45v4.45H136Zm0,0" transform="translate(-98.175 -196.35)" fill="#303030"/><path d="M168,272h4.45v4.45H168Zm0,0" transform="translate(-121.275 -196.35)" fill="#303030"/><path d="M200,272h4.45v4.45H200Zm0,0" transform="translate(-144.375 -196.35)" fill="#303030"/><path d="M136,304h4.45v4.45H136Zm0,0" transform="translate(-98.175 -219.45)" fill="#303030"/><path d="M168,304h4.45v4.45H168Zm0,0" transform="translate(-121.275 -219.45)" fill="#303030"/><path d="M200,304h4.45v4.45H200Zm0,0" transform="translate(-144.375 -219.45)" fill="#303030"/><path d="M232,304h4.45v4.45H232Zm0,0" transform="translate(-167.475 -219.45)" fill="#303030"/><path d="M264,304h4.45v4.45H264Zm0,0" transform="translate(-190.575 -219.45)" fill="#303030"/><path d="M136,336h4.45v4.45H136Zm0,0" transform="translate(-98.175 -242.55)" fill="#303030"/><path d="M168,336h4.45v4.45H168Zm0,0" transform="translate(-121.275 -242.55)" fill="#303030"/><path d="M200,336h4.45v4.45H200Zm0,0" transform="translate(-144.375 -242.55)" fill="#303030"/><path d="M232,336h4.45v4.45H232Zm0,0" transform="translate(-167.475 -242.55)" fill="#303030"/><path d="M264,336h4.45v4.45H264Zm0,0" transform="translate(-190.575 -242.55)" fill="#303030"/><path d="M136,368h4.45v4.45H136Zm0,0" transform="translate(-98.175 -265.65)" fill="#303030"/><path d="M168,368h4.45v4.45H168Zm0,0" transform="translate(-121.275 -265.65)" fill="#303030"/><path d="M200,368h4.45v4.45H200Zm0,0" transform="translate(-144.375 -265.65)" fill="#303030"/><path d="M232,368h4.45v4.45H232Zm0,0" transform="translate(-167.475 -265.65)" fill="#303030"/><path d="M264,368h4.45v4.45H264Zm0,0" transform="translate(-190.575 -265.65)" fill="#303030"/><path d="M136,400h4.45v4.45H136Zm0,0" transform="translate(-98.175 -288.75)" fill="#303030"/><path d="M168,400h4.45v4.45H168Zm0,0" transform="translate(-121.275 -288.75)" fill="#303030"/><path d="M200,400h4.45v4.45H200Zm0,0" transform="translate(-144.375 -288.75)" fill="#303030"/><path d="M232,400h4.45v4.45H232Zm0,0" transform="translate(-167.475 -288.75)" fill="#303030"/><path d="M264,400h4.45v4.45H264Zm0,0" transform="translate(-190.575 -288.75)" fill="#303030"/><path d="M136,432h4.45v4.45H136Zm0,0" transform="translate(-98.175 -311.85)" fill="#303030"/><path d="M168,432h4.45v4.45H168Zm0,0" transform="translate(-121.275 -311.85)" fill="#303030"/><path d="M200,432h4.45v4.45H200Zm0,0" transform="translate(-144.375 -311.85)" fill="#303030"/><path d="M232,432h4.45v4.45H232Zm0,0" transform="translate(-167.475 -311.85)" fill="#303030"/><path d="M264,432h4.45v4.45H264Zm0,0" transform="translate(-190.575 -311.85)" fill="#303030"/><path d="M131.275,6.675H115.7V2.225A2.225,2.225,0,0,0,113.475,0H91.225A2.225,2.225,0,0,0,89,2.225v4.45H2.225A2.225,2.225,0,0,0,0,8.9v8.9a2.224,2.224,0,0,0,2.225,2.225H8.9V62.3a2.224,2.224,0,0,0,2.225,2.225A2.225,2.225,0,1,1,8.9,66.75H4.45a6.624,6.624,0,0,0,1.7,4.409L.445,78.766l.028.022A2.179,2.179,0,0,0,0,80.1V89a2.223,2.223,0,0,0,.652,1.573l4.45,4.45a2.225,2.225,0,0,0,1.573.652h8.9a2.225,2.225,0,0,0,1.573-.652l4.45-4.45A2.223,2.223,0,0,0,22.25,89V80.1a2.179,2.179,0,0,0-.474-1.312l.028-.022L16.1,71.159a6.635,6.635,0,0,0-2.748-10.7V20.025H89V22.25a2.224,2.224,0,0,0,2.225,2.225h4.45V129.05h-8.9v-89h-4.45v8.9H68.975V44.5h-4.45v4.45H51.175V46.725h-4.45V48.95H33.375V42.275H62.3v-4.45H33.375v-8.9h-4.45V129.05H25.4L14.923,118.578a2.224,2.224,0,0,0-3.146,0L1.3,129.05H0v4.45H133.5v-4.45h-1.735a6.615,6.615,0,0,0-3.2-10.866,6.675,6.675,0,1,0-12.37,0,6.615,6.615,0,0,0-3.2,10.866h-3.96V24.475h4.45A2.224,2.224,0,0,0,115.7,22.25V20.025h15.575A2.224,2.224,0,0,0,133.5,17.8V8.9a2.225,2.225,0,0,0-2.225-2.225ZM12.237,73.425l3.337,4.45h-8.9l3.338-4.45ZM17.8,88.08l-3.146,3.145H7.6L4.45,88.08V82.325H17.8ZM121.708,11.125,115.7,15.131V11.125ZM93.45,4.45h8.9v8.9h-8.9Zm-60.075,7.12,6.008,4H27.367Zm-13.35,3.56-6.008-4.006H26.033Zm20.692-4.006H52.733l-6.008,4.006Zm19.358.445,6.008,4H54.067Zm7.342-.445H79.433l-6.008,4.006Zm-62.967,0H6.008l6.675,4.45H4.45Zm76.317,4.45,6.675-4.45H89v4.45Zm23.808,106.133-4-6.008,4-6.007Zm0-53.4-4-6.008,4-6.007Zm-4.45,1.335,4,6.007-4,6.008Zm0-14.685V42.943l4,6.007Zm0,41.385,4,6.007-4,6.008ZM104.575,95l-4-5.995,4-6.007Zm-4-59.395,4-6.007V41.608Zm-.445-7.342V24.475h2.518ZM82.325,53.4V75.65H68.975V53.4Zm-17.8,0V72.535l-5.117-5.057a2.231,2.231,0,0,0-1.558-.643H51.175V53.4Zm-17.8,0v3.709H33.375V53.4ZM13.35,123.3,19.1,129.05H7.6Zm20.025,5.754V61.559h13.35v7.509a2.224,2.224,0,0,0,2.225,2.225h7.985l8.257,8.164a2.225,2.225,0,0,0,1.558.642H82.325v48.95Zm66.75-6.007,4,6.007h-4Zm26.7,3.782a2.225,2.225,0,1,1,2.225-2.225A2.224,2.224,0,0,1,126.825,126.825Zm-4.45-13.35a2.225,2.225,0,1,1-2.225,2.225A2.225,2.225,0,0,1,122.375,113.475Zm-4.45,8.9A2.225,2.225,0,1,1,115.7,124.6,2.225,2.225,0,0,1,117.925,122.375ZM111.25,20.025H93.45V17.8h11.125a2.224,2.224,0,0,0,2.225-2.225V4.45h4.45Zm11.792-4.45,6.008-4v4Zm0,0" transform="translate(0)" fill="#303030"/></g></svg>