<?xml version="1.0" encoding="iso-8859-1"?>
<!-- Generator: Adobe Illustrator 19.0.0, SVG Export Plug-In . SVG Version: 6.00 Build 0)  -->
<svg version="1.1" id="Capa_1" xmlns="http://www.w3.org/2000/svg" xmlns:xlink="http://www.w3.org/1999/xlink" x="0px" y="0px"
	 viewBox="0 0 512.005 512.005" style="enable-background:new 0 0 512.005 512.005;" xml:space="preserve">
<g>
	<g>
		<path d="M184.003,111.549c-4.424,0-8,3.576-8,8v136.456c0,4.424,3.576,8,8,8s8-3.576,8-8V119.549
			C192.003,115.125,188.427,111.549,184.003,111.549z"/>
	</g>
</g>
<g>
	<g>
		<path d="M408.003,111.069c-4.424,0-8,3.576-8,8v136.936c0,4.424,3.576,8,8,8s8-3.576,8-8V119.069
			C416.003,114.645,412.427,111.069,408.003,111.069z"/>
	</g>
</g>
<g>
	<g>
		<path d="M302.547,3.381c-2.56-3.6-7.536-4.456-11.16-1.92l-136,96c-3.608,2.56-4.464,7.544-1.92,11.16
			c1.56,2.208,4.032,3.384,6.544,3.384c1.592,0,3.2-0.48,4.616-1.464l136-96C304.235,11.981,305.091,6.997,302.547,3.381z"/>
	</g>
</g>
<g>
	<g>
		<path d="M436.627,97.461l-136-96c-3.632-2.544-8.608-1.68-11.16,1.92c-2.552,3.624-1.688,8.608,1.92,11.16l136,96
			c1.408,0.984,3.016,1.464,4.608,1.464c2.512,0,4.984-1.176,6.552-3.384C441.099,104.997,440.235,100.013,436.627,97.461z"/>
	</g>
</g>
<g>
	<g>
		<path d="M302.547,35.381c-2.56-3.592-7.536-4.456-11.16-1.92l-136,96c-3.608,2.56-4.464,7.544-1.92,11.16
			c1.56,2.208,4.032,3.384,6.544,3.384c1.592,0,3.2-0.48,4.616-1.464l136-96C304.235,43.981,305.091,38.997,302.547,35.381z"/>
	</g>
</g>
<g>
	<g>
		<path d="M436.627,129.461l-136-96c-3.632-2.544-8.608-1.672-11.16,1.92c-2.552,3.624-1.688,8.608,1.92,11.16l136,96
			c1.408,0.984,3.016,1.464,4.608,1.464c2.512,0,4.984-1.176,6.552-3.384C441.099,136.997,440.235,132.013,436.627,129.461z"/>
	</g>
</g>
<g>
	<g>
		<path d="M160.003,96.005c-4.424,0-8,3.576-8,8v32c0,4.424,3.576,8,8,8s8-3.576,8-8v-32
			C168.003,99.581,164.427,96.005,160.003,96.005z"/>
	</g>
</g>
<g>
	<g>
		<path d="M432.003,96.005c-4.424,0-8,3.576-8,8v32c0,4.424,3.576,8,8,8s8-3.576,8-8v-32
			C440.003,99.581,436.427,96.005,432.003,96.005z"/>
	</g>
</g>
<g>
	<g>
		<path d="M328.003,144.005h-64c-4.424,0-8,3.576-8,8v104c0,4.424,3.576,8,8,8h64c4.424,0,8-3.576,8-8v-104
			C336.003,147.581,332.427,144.005,328.003,144.005z M320.003,248.005h-48v-88h48V248.005z"/>
	</g>
</g>
<g>
	<g>
		<path d="M408.003,248.005h-224c-4.424,0-8,3.576-8,8s3.576,8,8,8h224c4.424,0,8-3.576,8-8S412.427,248.005,408.003,248.005z"/>
	</g>
</g>
<g>
	<g>
		<path d="M48.243,464.005h-0.088c-4.416,0-7.952,3.576-7.952,8s3.616,8,8.04,8c4.416,0,8-3.576,8-8S52.659,464.005,48.243,464.005z
			"/>
	</g>
</g>
<g>
	<g>
		<path d="M472.003,320.005c-4.424,0-8,3.576-8,8s3.576,8,8,8c13.232,0,24,10.768,24,24c0,8.552-4.592,16.52-12,20.8
			c-3.816,2.208-5.128,7.096-2.912,10.928c1.472,2.56,4.16,3.992,6.928,3.992c1.36,0,2.736-0.344,4-1.08
			c12.328-7.128,19.984-20.408,19.984-34.64C512.003,337.949,494.059,320.005,472.003,320.005z"/>
	</g>
</g>
<g>
	<g>
		<path d="M495.043,383.933c-2.096-3.896-6.96-5.352-10.832-3.256l-216,116.288c-3.888,2.088-5.352,6.944-3.256,10.832
			c1.448,2.688,4.208,4.208,7.056,4.208c1.28,0,2.576-0.304,3.776-0.952l216-116.288
			C495.675,392.677,497.139,387.821,495.043,383.933z"/>
	</g>
</g>
<g>
	<g>
		<path d="M273.035,496.077l-184-24c-4.408-0.624-8.392,2.512-8.96,6.896c-0.584,4.376,2.512,8.392,6.896,8.96l184,24
			c0.352,0.048,0.696,0.072,1.04,0.072c3.96,0,7.4-2.936,7.92-6.968C280.515,500.661,277.419,496.645,273.035,496.077z"/>
	</g>
</g>
<g>
	<g>
		<path d="M88.003,272.005h-80c-4.424,0-8,3.576-8,8v216c0,4.424,3.576,8,8,8h80c4.424,0,8-3.576,8-8v-216
			C96.003,275.581,92.427,272.005,88.003,272.005z M80.003,488.005h-64v-200h64V488.005z"/>
	</g>
</g>
<g>
	<g>
		<path d="M474.451,327.277c-0.656-4.368-4.752-7.368-9.112-6.704l-154.536,23.52c-4.368,0.664-7.368,4.744-6.704,9.112
			c0.6,3.968,4.008,6.8,7.896,6.8c0.4,0,0.808-0.032,1.216-0.096l154.536-23.52C472.115,335.725,475.115,331.645,474.451,327.277z"
			/>
	</g>
</g>
<g>
	<g>
		<path d="M286.859,312.605c-4.328-0.728-8.488,2.168-9.24,6.52s2.168,8.488,6.52,9.24c11.512,1.984,19.864,11.928,19.864,23.64
			c0,13.232-10.768,24-24,24c-4.424,0-8,3.576-8,8s3.576,8,8,8c22.056,0,40-17.944,40-40
			C320.003,332.485,306.067,315.901,286.859,312.605z"/>
	</g>
</g>
<g>
	<g>
		<path d="M287.035,312.629l-125.504-24.48c-4.344-0.864-8.536,1.984-9.384,6.32c-0.848,4.336,1.984,8.544,6.32,9.384l125.504,24.48
			c0.512,0.104,1.032,0.152,1.536,0.152c3.752,0,7.104-2.648,7.848-6.472C294.203,317.677,291.371,313.469,287.035,312.629z"/>
	</g>
</g>
<g>
	<g>
		<path d="M160.003,288.005h-72c-4.424,0-8,3.576-8,8s3.576,8,8,8h72c4.424,0,8-3.576,8-8S164.427,288.005,160.003,288.005z"/>
	</g>
</g>
<g>
	<g>
		<path d="M277.251,375.853l-100.632-7.824c-4.408-0.376-8.248,2.944-8.592,7.36c-0.344,4.408,2.952,8.248,7.36,8.592l100.632,7.824
			c0.208,0.016,0.416,0.024,0.624,0.024c4.144,0,7.64-3.192,7.968-7.384C284.955,380.037,281.659,376.197,277.251,375.853z"/>
	</g>
</g>
<g>
	<g>
		<path d="M472.003,320.005c-2.304,0-4.592,0.192-6.824,0.584c-4.36,0.744-7.28,4.88-6.528,9.232
			c0.664,3.896,4.04,6.648,7.872,6.648c0.448,0,0.912-0.04,1.36-0.12c1.336-0.224,2.712-0.344,4.12-0.344c4.424,0,8-3.576,8-8
			S476.427,320.005,472.003,320.005z"/>
	</g>
</g>
<g>
	<g>
		<path d="M280.003,376.005c-0.84,0-1.68-0.048-2.504-0.136c-4.416-0.512-8.328,2.712-8.8,7.112c-0.464,4.392,2.712,8.328,7.112,8.8
			c1.368,0.144,2.768,0.224,4.192,0.224c4.424,0,8-3.576,8-8S284.427,376.005,280.003,376.005z"/>
	</g>
</g>
<g>
	<g>
		<path d="M280.243,200.005h-0.088c-4.416,0-7.952,3.576-7.952,8s3.616,8,8.04,8c4.416,0,8-3.576,8-8
			S284.659,200.005,280.243,200.005z"/>
	</g>
</g>
<g>
</g>
<g>
</g>
<g>
</g>
<g>
</g>
<g>
</g>
<g>
</g>
<g>
</g>
<g>
</g>
<g>
</g>
<g>
</g>
<g>
</g>
<g>
</g>
<g>
</g>
<g>
</g>
<g>
</g>
</svg>
