<svg xmlns="http://www.w3.org/2000/svg" width="29.727" height="29.732" viewBox="0 0 29.727 29.732"><path d="M30.1,8.741a10.864,10.864,0,0,0-.691-3.607A7.616,7.616,0,0,0,25.058.784,10.892,10.892,0,0,0,21.451.093C19.86.018,19.355,0,15.318,0S10.776.018,9.19.087A10.867,10.867,0,0,0,5.583.778,7.255,7.255,0,0,0,2.946,2.5,7.32,7.32,0,0,0,1.233,5.129,10.893,10.893,0,0,0,.542,8.736c-.076,1.592-.093,2.1-.093,6.134S.466,19.411.536,21A10.864,10.864,0,0,0,1.227,24.6a7.615,7.615,0,0,0,4.35,4.35,10.894,10.894,0,0,0,3.607.691c1.585.07,2.091.087,6.128.087s4.542-.017,6.128-.087a10.862,10.862,0,0,0,3.607-.691A7.605,7.605,0,0,0,29.4,24.6,10.9,10.9,0,0,0,30.088,21c.07-1.586.087-2.091.087-6.128s-.006-4.542-.076-6.128ZM27.422,20.881a8.149,8.149,0,0,1-.511,2.759,4.932,4.932,0,0,1-2.823,2.823,8.178,8.178,0,0,1-2.759.511c-1.568.07-2.039.087-6.006.087s-4.443-.017-6.006-.087a8.145,8.145,0,0,1-2.759-.511,4.575,4.575,0,0,1-1.708-1.109,4.623,4.623,0,0,1-1.109-1.708,8.18,8.18,0,0,1-.511-2.759c-.07-1.568-.087-2.039-.087-6.006s.017-4.443.087-6.006a8.145,8.145,0,0,1,.511-2.759A4.519,4.519,0,0,1,4.857,4.408,4.616,4.616,0,0,1,6.565,3.3a8.184,8.184,0,0,1,2.759-.511c1.568-.07,2.039-.087,6.006-.087s4.443.017,6.006.087a8.15,8.15,0,0,1,2.759.511A4.572,4.572,0,0,1,25.8,4.408a4.622,4.622,0,0,1,1.109,1.708,8.182,8.182,0,0,1,.511,2.759c.07,1.568.087,2.039.087,6.006s-.017,4.432-.087,6Zm0,0" transform="translate(-0.449 0)" fill="#f37030"/><path d="M132.587,124.5a7.638,7.638,0,1,0,7.638,7.638A7.64,7.64,0,0,0,132.587,124.5Zm0,12.592a4.954,4.954,0,1,1,4.954-4.954A4.955,4.955,0,0,1,132.587,137.092Zm0,0" transform="translate(-117.718 -117.269)" fill="#f37030"/><path d="M366.016,90.385a1.783,1.783,0,1,1-1.783-1.783A1.783,1.783,0,0,1,366.016,90.385Zm0,0" transform="translate(-341.424 -83.456)" fill="#f37030"/></svg>