<?xml version="1.0" encoding="utf-8"?>
<!-- Generator: Adobe Illustrator 23.0.3, SVG Export Plug-In . SVG Version: 6.00 Build 0)  -->
<svg version="1.1" id="Layer_1" xmlns="http://www.w3.org/2000/svg" xmlns:xlink="http://www.w3.org/1999/xlink" x="0px" y="0px"
	 viewBox="0 0 1463 473" style="enable-background:new 0 0 1463 473;" xml:space="preserve">
<style type="text/css">
	.st0{display:none;}
	.st1{display:inline;fill:#474646;}
	.st2{fill:#212121;}
	.st3{fill:#272626;}
	.st4{fill:#4A4848;}
	.st5{fill:#434141;}
	.st6{fill:#2A2928;}
	.st7{fill:#363434;}
	.st8{fill:#343333;}
	.st9{fill:#3B3A3A;}
	.st10{fill:#373535;}
	.st11{fill:#383737;}
	.st12{fill:#4C4B4B;}
	.st13{fill:#4A4949;}
	.st14{fill:#323131;}
	.st15{fill:#353434;}
	.st16{fill:#383736;}
	.st17{fill:#42403F;}
	.st18{fill:#2D2D2C;}
	.st19{fill:#2B2A29;}
	.st20{fill:#333232;}
	.st21{fill:#1F1E1E;}
	.st22{fill:#272625;}
	.st23{fill:#353333;}
	.st24{fill:#767475;}
	.st25{fill:#5B5858;}
	.st26{fill:#373636;}
	.st27{fill:#5A5656;}
	.st28{fill:#747172;}
	.st29{fill:#343332;}
	.st30{fill:#383636;}
	.st31{fill:#F37131;}
	.st32{fill:#484645;}
	.st33{fill:#4D4C4C;}
	.st34{fill:#2E2C2C;}
	.st35{fill:#343232;}
	.st36{fill:#494847;}
	.st37{fill:#343433;}
	.st38{fill:#302F2F;}
	.st39{fill:#353433;}
	.st40{fill:#3C3B3B;}
	.st41{fill:#E78958;}
	.st42{fill:#E28554;}
	.st43{fill:#1F1F1F;}
	.st44{fill:#E18555;}
</style>
<g class="st0">
	<path class="st1" d="M1,0.5h431.2c-0.3,0.3-1,0.9-1.3,1.2c-32.5-0.5-64.9-0.1-97.4-0.2c-106,0-212,0-318,0
		C10.7,1.4,5.9,1.8,1.1,1.1L1,0.5z"/>
	<path class="st1" d="M511.2,0.5h288.5l-0.1,1c-44.7,0.1-89.4,0-134.1,0C615,1.6,564.5,1.3,514.1,1.7C513.1,1.4,512.1,1,511.2,0.5z"
		/>
</g>
<g>
	<g>
		<path class="st2" d="M510.7,0.5h0.5c0.9,0.5,1.9,0.9,2.9,1.2C564.5,1.3,615,1.6,665.5,1.5c44.7,0,89.4,0,134.1,0
			c2.9,0,5.8,0,8.8,0c0.3,0,1,0.1,1.3,0.2c2,1.7,4.5,1.6,6.8,0.8c28.5,3.8,55.8,16.5,77.4,35.5c0.1,0.1,0.2,0.2,0.3,0.3
			c27.7,24.1,46.2,58.5,50.5,95c-0.3,3.6,0.2,7.2,0.8,10.7c0,0.5,0.1,1.5,0.1,2.1c-0.1,5-0.2,10.1,0.1,15.1c0,0.5-0.2,1.6-0.2,2.1
			c-0.7,3.3-1,6.6-0.8,10c0,0.3-0.2,1-0.2,1.3c-1.6,1.3-1.7,3.5-0.7,5.2c-1,6.3-2.5,12.6-4.3,18.7c-0.2,0.6-0.6,1.7-0.8,2.3
			c-4.1,13-10,25.5-17.6,36.8c-9.1,13.4-19.9,25.8-32.8,35.5c1,3.6,3.7,6.5,4.1,10.2c-2.5-2.7-3.3-6.4-5.7-9.1
			c-3,3.3-6.9,5.6-10.6,8c-11,7-22.9,12.7-35.4,16.5c-0.6,0.2-1.8,0.6-2.3,0.8c-4.2,1.2-8.4,2.4-12.7,3.2c-1.5-0.7-3.2-0.4-4.2,0.9
			c-0.4,0-1.3,0.1-1.7,0.2c-1.8-0.9-3.9-0.8-5.2,0.8c-0.3,0-1,0.1-1.3,0.2c-3.1-0.1-6.2,0.1-9.2,0.8c-1,0.1-2.1,0.1-3.1,0.2
			c-52.2-0.4-104.3-0.1-156.5-0.2c-29.8,0.1-59.7-0.1-89.5,0.1c-12.5,0.2-25,0-37.4,0.1c-2.1,0-4.2-0.1-6.2-0.8
			c0.1,55.9,0.1,111.7,0,167.6l-0.7-0.1c-0.2-54,0-108-0.1-162c0.7-19,0.2-38,0.4-57c0-59.7,0-119.3,0-179
			C510.8,49.8,511.3,25.2,510.7,0.5z M554.9,43.3c0.4,74.1,0,148.2,0.2,222.3l-0.8,0c2.8,1.4,6.1,0.7,9.1,0.8
			c79.4,0,158.8,0,238.1,0c1.2,0,2.3-0.3,3.3-0.9c1.5,0,3.1,0,4.6-0.5c1.1,1.1,4.6,1.3,4.8-0.6c2.4,0.2,4.8-0.5,7.2-0.9
			c17.3-3.5,33.7-11.8,46.6-23.9c3-0.9,5.8-3.5,6.6-6.6c13.9-15.2,22.7-34.9,24.8-55.3c0.5-2.4,1-4.8,0.9-7.2c0-11,0-21.9,0-32.9
			c0-2.1-0.4-4.2-0.9-6.2c-1.2-11-4-22-9.1-31.8l0.4-0.8l-0.5-1l-0.9-0.1C886,90,881,82.9,875.3,76.7c0.6-1.7,0-2.5-1.8-2.2
			c-1.4-1.9-3.1-3.6-5-4.9c0.3-1.8-0.4-2.4-2.1-1.9c-13.6-12.3-31.1-20.4-49.2-23.1c-0.5-2.1-4.2-1.9-5.7-0.7
			c-0.4-0.1-1.2-0.3-1.6-0.4c-2.4-0.7-4.9-1-7.3-1c-80,0-160,0-240,0C560,42.7,557.2,42,554.9,43.3z"/>
	</g>
	<g>
		<path class="st2" d="M1027.5,0.5h290c1.3,1.5,3.4,1.9,5,0.6c1.6,0.7,3.5,0.9,5.1-0.1c0.4,0.1,1.4,0.4,1.8,0.6
			c1.3,1.6,3.5,1.6,5.3,0.6c10.6,1.6,20.8,4.5,30.8,8.3c0.6,0.3,1.7,0.7,2.3,1c15.9,6.3,30.8,15.4,43.4,26.9c0.1,1.5,1,2.3,2.5,2.2
			c3.3,3.1,6.5,6.3,9.7,9.7c-0.1,1.5,0.6,2.4,2.1,2.5c19.6,21.9,32.1,49.8,36.2,78.8c-1,2.3-1,4.9,0.7,6.9c0.1,0.6,0.2,1.6,0.3,2.2
			c0,0.5,0,1.4,0,1.9c-1.1,1.3-0.4,3.1,0.8,4v13c-1.2,0.9-1.8,2.7-0.8,4.1c0,0.4-0.1,1.4-0.1,1.8c0,0.6-0.1,1.6-0.2,2.2
			c-1.8,1.9-1.7,4.6-0.7,6.9l-0.3,1c-1.3,1.4-1.6,3.4-0.8,5.1c-0.8,7.1-3.1,13.9-5.1,20.8c-0.2,0.6-0.7,1.7-0.9,2.3
			c-6.4,18.4-16.5,35.5-29.4,50.2c-0.1,0.1-0.2,0.3-0.3,0.4c-3.9,4.3-7.9,8.4-12.2,12.2c-1.6-0.1-2.4,0.6-2.5,2.2
			c-20.9,18.3-47.1,30.8-74.6,35c-1.7-0.6-4-0.9-5,0.9c-0.4,0-1.1,0-1.4,0c-3.4-0.1-6.7,0.2-10,0.9c-7.5,0.6-15,0.4-22.5,0.3
			c-19.2-0.2-38.4,0-57.6-0.1c-56.9-0.2-113.7-0.1-170.6,0l-1,0c-13.3,0.1-26.7,0-40,0.1C1027.5,203.9,1027.5,102.2,1027.5,0.5z
			 M1067.7,42.7c-0.3,14.6-0.1,29.2-0.1,43.8c0.1,59.9-0.2,119.8,0.2,179.7c25.6,0.5,51.2,0.1,76.8,0.2c56.7,0,113.3,0,170,0
			c1.5,0,3.1,0,4.5-0.9c1.5,0,3.2,0.1,4.7-0.5c1.7,1.1,5.4,1.2,6.4-0.7c18.3-2.4,35.8-10.5,49.8-22.4c0.1,0,0.1-0.1,0.2-0.1
			c3.3-2.9,6.7-5.9,9.5-9.4c1.8,0.3,2.4-0.4,1.8-2.1c11.9-13.9,19.5-31.3,22.1-49.4c1-3.2,1.3-6.6,0.8-9.9c0.4-10.9,0.4-22,0-32.9
			c0.4-3.3,0.2-6.7-0.8-10l0,0.6c-0.3-2.4-0.7-4.8-1.4-7.1c1.1-1.5,0.8-2.4-0.8-2.8c-0.3-3.8-1.7-7.6-3.2-11.1
			c1.4-1.1,0.2-4.5-1.7-4c-3.2-9-8.6-17.1-14.5-24.5c0,0-0.1-0.1-0.1-0.2c-15.2-18.3-37.1-31.2-60.7-34.4c-0.6-2-4.1-1.8-5.5-0.7
			c-0.7-0.1-2-0.3-2.6-0.5c-1.4-0.9-3-1-4.6-1c-56.3,0-112.6,0-168.9,0C1122.3,42.6,1095,42.2,1067.7,42.7z"/>
	</g>
	<g>
		<path class="st2" d="M0.5,1.1l0.6,0.1c4.8,0.7,9.6,0.3,14.4,0.4c106,0,212,0,318,0c32.5,0.1,64.9-0.3,97.4,0.2
			c-78,78.4-156.5,156.4-234.6,234.8l0.7,0.9c-0.3-0.2-0.8-0.7-1-1c-9.5,10-19.5,19.5-29.1,29.4C125.8,307,84.7,348.1,43.5,389.2
			c-0.3,0.3-0.8,0.8-1.1,1.1C28.9,403.8,15.2,417.1,2,430.9L1.8,430c-0.5-3.1-0.3-6.3-0.3-9.5c0-138.4,0-276.7,0-415.1
			c0-1.4-0.4-2.7-1-3.9V1.1z M43.8,42.7c-0.1,66.6,0,133.2,0,199.8c-0.1,28.1,0.3,56.2-0.2,84.2c0.4-0.2,1.3-0.5,1.7-0.7
			c1.2-1.1,2.4-2.3,3-3.8c1.7,0.4,2.3-0.3,2-1.9c1.1-0.3,1.8-1,2.1-2.1c1.7,0.3,2.3-0.3,1.9-2c1.1-0.3,1.8-1,2.1-2.1
			c1.6,0.4,2.3-0.2,1.9-1.9c1.1-0.3,1.8-1,2.1-2.1c1.7,0.4,2.3-0.3,1.9-2c5.8-4.4,10.6-10.1,15.9-15.1
			c21.7-21.6,43.2-43.5,65.1-64.8c20.6-20.5,41.3-41.1,61.8-61.7c0.5-0.2,1.5-0.5,2-0.7c5.9-5.4,11.3-11.3,17.1-16.9
			c1.8-1.8,4-3.4,4.7-6c1.6-1.5,3.6-2.8,4.5-4.9c1.7,0.4,2.3-0.3,1.9-1.9c1.1-0.3,1.8-1,2.1-2.1c1.6,0.4,2.3-0.3,1.9-1.9
			c1.1-0.3,1.8-1,2.1-2.1c1.6,0.4,2.3-0.3,1.9-1.9c1.1-0.3,1.8-1,2.1-2.1c1.6,0.4,2.3-0.3,1.9-2c2.3-1.2,3.8-3.4,5.8-5.1
			c25.4-25,50.2-50.6,75.8-75.4l0.4,0c0-0.3,0.1-0.9,0.1-1.2c-11.6-0.4-23.2-0.1-34.8-0.2c-82,0-164,0-246,0
			C47,42.5,45.3,42.6,43.8,42.7z"/>
	</g>
</g>
<g>
	<path class="st3" d="M799.7,0.5h7.5l1.2,0.9c-2.9,0-5.8,0.1-8.8,0L799.7,0.5z"/>
</g>
<g>
	<path class="st4" d="M1026.5,0.5h1c0,101.7,0,203.4,0,305.2l-1-0.1C1026.5,203.9,1026.5,102.2,1026.5,0.5z"/>
</g>
<g>
	<path class="st5" d="M1317.5,0.5h5l0,0.6C1320.9,2.4,1318.8,2,1317.5,0.5z"/>
</g>
<g>
	<path class="st6" d="M1322.5,0.5h4.7l0.4,0.5c-1.6,1-3.5,0.8-5.1,0.1L1322.5,0.5z"/>
</g>
<g>
	<path class="st7" d="M809.7,1.6c2.3-0.2,4.8-0.6,6.8,0.8C814.2,3.2,811.6,3.3,809.7,1.6z"/>
</g>
<g>
	<path class="st7" d="M1329.4,1.6c1.8-0.5,3.6-0.2,5.3,0.6C1332.9,3.2,1330.8,3.2,1329.4,1.6z"/>
</g>
<g>
	<path class="st8" d="M1365.5,10.5c0.6,0.3,1.7,0.7,2.3,1C1367.2,11.2,1366.1,10.7,1365.5,10.5z"/>
</g>
<g>
	<path class="st9" d="M893.9,37.8c0.1,0.1,0.2,0.2,0.3,0.3C894.1,38,894,37.9,893.9,37.8z"/>
</g>
<g>
	<path class="st10" d="M1411.2,38.4c1.3,0.2,2.1,0.9,2.5,2.2C1412.2,40.6,1411.3,39.9,1411.2,38.4z"/>
</g>
<g>
	<path class="st11" d="M43.8,42.7c1.6-0.1,3.2-0.2,4.8-0.2c82,0,164,0,246,0c11.6,0.1,23.2-0.3,34.8,0.2c0,0.3-0.1,0.9-0.1,1.2
		l-0.4,0c-2.4-0.2-4.8-0.3-7.2-0.3c-92.5,0-184.9,0-277.4,0c0,94.1-0.1,188.2,0,282.3l1,0.1c-0.4,0.2-1.3,0.5-1.7,0.7
		c0.4-28.1,0-56.1,0.2-84.2C43.7,175.9,43.6,109.3,43.8,42.7z"/>
</g>
<g>
	<path class="st12" d="M554.9,43.3c2.3-1.4,5.1-0.7,7.6-0.8c80,0,160,0,240,0c2.5,0,5,0.3,7.3,1c-58.4,0-116.8,0-175.3,0
		C608,43.4,581.4,43.7,554.9,43.3z"/>
</g>
<g>
	<path class="st13" d="M1067.7,42.7c27.3-0.5,54.6-0.1,81.8-0.2c56.3,0,112.6,0,168.9,0c1.6,0,3.2,0.1,4.6,1
		c-84.8,0-169.7,0-254.5,0c0,74,0,148.1,0,222.1c83.5,0,167-0.1,250.5,0.1c-1.3,0.9-3,0.9-4.5,0.9c-56.7,0-113.3,0-170,0
		c-25.6-0.1-51.2,0.3-76.8-0.2c-0.4-59.9-0.1-119.8-0.2-179.7C1067.7,71.9,1067.4,57.3,1067.7,42.7z"/>
</g>
<g>
	<path class="st8" d="M811.5,43.9c1.4-1.2,5.1-1.4,5.7,0.7C815.2,44.6,813.3,44.5,811.5,43.9z"/>
</g>
<g>
	<path class="st14" d="M1325.6,43.9c1.4-1.2,4.9-1.3,5.5,0.7C1329.2,44.7,1327.3,44.6,1325.6,43.9z"/>
</g>
<g>
	<path class="st15" d="M1423.4,50.2c1.2,0.4,1.9,1.2,2.1,2.5C1424,52.6,1423.3,51.7,1423.4,50.2z"/>
</g>
<g>
	<path class="st16" d="M866.3,67.7c1.8-0.5,2.5,0.1,2.1,1.9C867.5,69.2,866.8,68.6,866.3,67.7z"/>
</g>
<g>
	<path class="st15" d="M873.5,74.6c1.8-0.3,2.4,0.4,1.8,2.2C874.4,76.2,873.8,75.5,873.5,74.6z"/>
</g>
<g>
	<path class="st17" d="M1391.8,79c0,0.1,0.1,0.1,0.1,0.2C1391.9,79.1,1391.9,79.1,1391.8,79z"/>
</g>
<g>
	<path class="st18" d="M889.4,97.7l0.9,0.1l0.5,1l-0.4,0.8C890.1,99.1,889.6,98.1,889.4,97.7z"/>
</g>
<g>
	<path class="st19" d="M1406.5,103.7c1.9-0.6,3,2.8,1.7,4C1407.3,106.4,1406.8,105.1,1406.5,103.7z"/>
</g>
<g>
	<path class="st20" d="M1411.3,118.7c1.7,0.4,1.9,1.3,0.8,2.8C1411.5,120.7,1411.2,119.7,1411.3,118.7z"/>
</g>
<g>
	<path class="st21" d="M245.3,126.2c0.2-1.1,0.9-1.7,1.9-2C247.6,125.9,246.9,126.6,245.3,126.2z"/>
	<path class="st21" d="M241.3,130.2c0.2-1.1,0.9-1.7,1.9-1.9C243.6,129.9,242.9,130.6,241.3,130.2z"/>
	<path class="st21" d="M237.3,134.2c0.2-1.1,0.9-1.7,1.9-1.9C239.6,133.9,238.9,134.6,237.3,134.2z"/>
	<path class="st21" d="M233.3,138.2c0.2-1.1,0.9-1.7,1.9-1.9C235.6,137.9,234.9,138.6,233.3,138.2z"/>
</g>
<g>
	<path class="st8" d="M1413.5,128.6l0-0.6c0.9,3.2,1.2,6.6,0.8,10C1413.6,134.9,1413.5,131.8,1413.5,128.6z"/>
</g>
<g>
	<path class="st22" d="M899.5,131.4c0.5,2,0.9,4.1,0.9,6.2c0,11,0,21.9,0,32.9c0,2.4-0.4,4.9-0.9,7.2
		C899.9,162.3,899.9,146.8,899.5,131.4z"/>
</g>
<g>
	<path class="st23" d="M1461.7,131.6c1.1,2.1,1,4.6,0.7,6.9C1460.8,136.4,1460.7,133.9,1461.7,131.6z"/>
</g>
<g>
	<path class="st8" d="M944.7,133.1c0.7,3.5,0.9,7.1,0.8,10.7C944.8,140.3,944.4,136.7,944.7,133.1z"/>
</g>
<g>
	<path class="st24" d="M1462.7,140.6l0.8,0.3v1.8l-0.8-0.1C1462.7,142.1,1462.7,141.1,1462.7,140.6z"/>
</g>
<g>
	<path class="st25" d="M1462.7,142.5l0.8,0.1v3.9C1462.2,145.6,1461.6,143.9,1462.7,142.5z"/>
</g>
<g>
	<path class="st26" d="M205.1,166.6c7.8-7.9,15.5-16,23.7-23.6c-0.7,2.6-2.9,4.2-4.7,6c-5.8,5.5-11.2,11.4-17.1,16.9
		C206.5,166.1,205.5,166.5,205.1,166.6z"/>
</g>
<g>
	<path class="st15" d="M945.6,145.9c1.6,4.8,1.1,10.2,0.1,15.1C945.4,155.9,945.5,150.9,945.6,145.9z"/>
</g>
<g>
	<path class="st27" d="M1462.7,163.6c-1-1.4-0.4-3.1,0.8-4.1v4.1L1462.7,163.6z"/>
</g>
<g>
	<path class="st8" d="M944.7,173.1c-0.2-3.4,0.1-6.7,0.8-10C945.6,166.5,945.3,169.8,944.7,173.1z"/>
</g>
<g>
	<path class="st28" d="M1462.7,163.6l0.8,0v1.8l-0.9,0.1C1462.6,165,1462.7,164.1,1462.7,163.6z"/>
</g>
<g>
	<path class="st20" d="M1461.7,174.5c-1-2.3-1-4.9,0.7-6.9C1462.8,169.9,1462.8,172.3,1461.7,174.5z"/>
</g>
<g>
	<path class="st8" d="M1413.4,180.9c0.1-3.3,0.2-6.6,0.8-9.9C1414.7,174.3,1414.4,177.7,1413.4,180.9z"/>
</g>
<g>
	<path class="st29" d="M943.7,179.6c-1-1.7-0.9-3.9,0.7-5.2C944.8,176.2,944.7,178.1,943.7,179.6z"/>
</g>
<g>
	<path class="st15" d="M1460.6,180.6c-0.8-1.8-0.5-3.7,0.8-5.1C1461.7,177.2,1462.1,179.3,1460.6,180.6z"/>
</g>
<g>
	<path class="st30" d="M938.7,200.7c0.2-0.6,0.6-1.8,0.8-2.3C939.3,198.9,938.8,200.1,938.7,200.7z"/>
	<path class="st30" d="M1454.6,203.7c0.2-0.6,0.7-1.7,0.9-2.3C1455.3,201.9,1454.8,203.1,1454.6,203.7z"/>
</g>
<g>
	<path class="st15" d="M1389.5,232.4c0.3-0.9,0.9-1.7,1.8-2.1C1391.8,232.1,1391.2,232.8,1389.5,232.4z"/>
</g>
<g>
	<path class="st11" d="M868,239.6c2.1-2.3,4.3-4.5,6.6-6.6C873.8,236.1,871.1,238.8,868,239.6z"/>
</g>
<g>
	<path class="st31" d="M196,236.4c0.3,0.3,0.8,0.7,1,1c21.9,21.7,43.5,43.5,65.3,65.3c56.9,57,114,113.8,170.8,170.9H2.5
		c0-12.6,0-25.3,0-38c0-1.6-0.1-3.1-0.5-4.6c13.2-13.8,26.9-27.1,40.4-40.6c0.3,14-0.1,28.1,0.2,42.1l0.9,0.1
		c96.8,0.1,193.6,0,290.4,0c-31.2-31.2-62.6-62.3-93.8-93.6c-24.4-24.4-48.7-48.9-73.2-73.1C176.5,255.9,186.5,246.4,196,236.4z"/>
	<path class="st31" d="M888.2,273c13-9.7,23.7-22.2,32.8-35.5c12.2,18.7,20.2,40,23.2,62.1c1.5,9.6,1.3,19.3,1.2,28.9
		c-1.7,36.5-17.2,72.1-42.8,98.1c-22.1,23-51.7,38.6-83.2,43.9c-16.8,3.1-34,1.9-51,2.1c-85.7-0.1-171.5,0.2-257.2-0.1
		c0.1-55.9,0.1-111.7,0-167.6c2,0.7,4.1,0.8,6.2,0.8c12.5-0.2,25,0.1,37.4-0.1v0.9c0,41.5,0,82.9,0,124.4c81.8,0,163.7,0,245.5,0
		c17.5-0.1,35-4.4,50.2-13.2c18.7-10.6,33.5-27.6,41.8-47.4c5.9-13.8,8.2-28.9,7.5-43.9c0.8-14.8-2-29.6-7.7-43.2
		C891.9,279.5,889.2,276.6,888.2,273z"/>
	<path class="st31" d="M1027.5,305.7c13.3-0.1,26.7,0.1,40-0.1c0.2,42.6-0.1,85.2,0.2,127.7l0.9,0c96.8,0.1,193.6,0,290.4,0
		c-39.5-42.5-79.6-84.4-119.1-127l-0.8-0.8c19.2,0.2,38.4-0.1,57.6,0.1c26.3,26.6,52.8,52.9,79.2,79.4
		c29.2,29.1,58.3,58.5,87.6,87.5c-145.3,0.1-290.6,0.1-436,0C1027.4,417,1027.5,361.3,1027.5,305.7z"/>
</g>
<g>
	<path class="st32" d="M1379.8,242c0.1,0,0.1-0.1,0.2-0.1C1380,241.9,1379.9,241.9,1379.8,242z"/>
</g>
<g>
	<path class="st33" d="M1424.9,254.2c0.1-0.1,0.2-0.3,0.3-0.4l-0.2,0.2L1424.9,254.2z"/>
</g>
<g>
	<path class="st34" d="M809.5,265c1.5-0.6,3.2-0.8,4.8-0.6C814.1,266.4,810.6,266.1,809.5,265z"/>
</g>
<g>
	<path class="st35" d="M1323.7,265.1c2-0.9,4.2-0.8,6.4-0.7C1329,266.3,1325.3,266.3,1323.7,265.1z"/>
</g>
<g>
	<path class="st36" d="M554.3,265.7l0.8,0c25.8-0.3,51.6,0,77.5-0.1c57.5,0,114.9-0.1,172.4,0.1c-1,0.6-2.2,0.9-3.3,0.9
		c-79.4,0-158.8,0-238.1,0C560.4,266.4,557.1,267.1,554.3,265.7z"/>
</g>
<g>
	<path class="st37" d="M1410.3,268.6c0.1-1.5,0.9-2.3,2.5-2.2C1412.4,267.7,1411.5,268.4,1410.3,268.6z"/>
</g>
<g>
	<path class="st16" d="M838.3,299.5c0.6-0.2,1.7-0.6,2.3-0.8C840.1,298.9,838.9,299.3,838.3,299.5z"/>
</g>
<g>
	<path class="st38" d="M821.4,303.5c1-1.3,2.7-1.6,4.2-0.9C824.5,303.8,822.9,304,821.4,303.5z"/>
</g>
<g>
	<path class="st39" d="M814.5,304.5c1.3-1.6,3.5-1.7,5.2-0.8C818.1,304.7,816.2,304.8,814.5,304.5z"/>
</g>
<g>
	<path class="st23" d="M1330.6,304.6c1-1.9,3.3-1.5,5-0.9C1334.2,304.9,1332.3,304.7,1330.6,304.6z"/>
</g>
<g>
	<path class="st15" d="M804,305.5c3-0.6,6.1-0.9,9.2-0.8C810.2,305.3,807.1,305.5,804,305.5z"/>
</g>
<g>
	<path class="st39" d="M1319.1,305.5c3.3-0.7,6.7-1,10-0.9C1325.9,305.4,1322.5,305.6,1319.1,305.5z"/>
</g>
<g>
	<path class="st40" d="M555,305.6c29.8-0.2,59.7,0,89.5-0.1c52.2,0.1,104.3-0.2,156.5,0.2c-1.5,0.3-2.9,0.7-4.3,0.8
		c-80.5,0-161.1,0-241.6,0V305.6z"/>
	<path class="st40" d="M1068.5,305.6c56.8-0.1,113.7-0.2,170.6,0l0.8,0.8c-57.1,0.1-114.2,0.1-171.3,0L1068.5,305.6L1068.5,305.6z"
		/>
</g>
<g>
	<path class="st41" d="M1026.5,305.6l1,0.1c0,55.6-0.1,111.3,0.1,166.9l-1-0.1C1026.4,416.9,1026.5,361.3,1026.5,305.6z"/>
</g>
<g>
	<path class="st42" d="M1067.5,305.6l1,0v0.9c0,42.3,0,84.6,0,126.9l-0.9,0C1067.3,390.8,1067.6,348.2,1067.5,305.6z"/>
</g>
<g>
	<path class="st43" d="M60.3,310.2c0.2-1.1,0.8-1.7,1.9-2C62.6,309.9,62,310.6,60.3,310.2z"/>
	<path class="st43" d="M56.3,314.2c0.2-1.1,0.9-1.7,1.9-1.9C58.6,314,57.9,314.6,56.3,314.2z"/>
	<path class="st43" d="M52.3,318.2c0.2-1.1,0.8-1.7,1.9-2C54.6,317.9,54,318.6,52.3,318.2z"/>
	<path class="st43" d="M48.3,322.2c0.3-1,0.9-1.7,2-1.9C50.6,322,49.9,322.6,48.3,322.2z"/>
</g>
<g>
	<path class="st44" d="M42.4,390.3c0.3-0.3,0.8-0.8,1.1-1.1c0,14.4,0,28.9,0,43.3l-0.9-0.1C42.3,418.4,42.7,404.3,42.4,390.3z"/>
</g>
</svg>
