<svg xmlns="http://www.w3.org/2000/svg" width="33.695" height="30.028" viewBox="0 0 33.695 30.028"><path d="M22.637,18.546a2.635,2.635,0,1,1,2.635-2.635,2.639,2.639,0,0,1-2.635,2.635M23.1,22.87c-1.8,1.8-5.244,1.937-6.255,1.937s-4.46-.142-6.256-1.937a.683.683,0,1,1,.966-.966c1.133,1.133,3.555,1.537,5.29,1.537s4.157-.4,5.29-1.537a.681.681,0,0,1,.966,0,.69.69,0,0,1,0,.966M8.412,15.912a2.635,2.635,0,1,1,2.635,2.635,2.64,2.64,0,0,1-2.635-2.635M33.7,13.277a3.684,3.684,0,0,0-6.245-2.65A18.044,18.044,0,0,0,17.59,7.5l1.679-7.9L24.756.761a2.625,2.625,0,0,0,2.62,2.508,2.635,2.635,0,0,0,0-5.27A2.62,2.62,0,0,0,25.024-.529L18.9-1.833a.659.659,0,0,0-.5.091.649.649,0,0,0-.283.415s-1.841,8.769-1.841,8.82A18.079,18.079,0,0,0,6.237,10.617,3.685,3.685,0,1,0,2.182,16.64,7.423,7.423,0,0,0,2.1,17.758c0,5.674,6.6,10.271,14.751,10.271S31.6,23.432,31.6,17.758a7.334,7.334,0,0,0-.086-1.107A3.7,3.7,0,0,0,33.7,13.277" transform="translate(-0.002 2)" fill="#f37030"/></svg>