<svg xmlns="http://www.w3.org/2000/svg" width="36.723" height="29.846" viewBox="0 0 36.723 29.846"><path d="M11.631,26.021c13.859,0,21.437-11.481,21.437-21.437q0-.489-.021-.974a15.333,15.333,0,0,0,3.758-3.9A15.032,15.032,0,0,1,32.478.9a7.563,7.563,0,0,0,3.313-4.168,15.111,15.111,0,0,1-4.784,1.829A7.541,7.541,0,0,0,18.168,5.427,21.392,21.392,0,0,1,2.637-2.445a7.517,7.517,0,0,0-1.02,3.787A7.528,7.528,0,0,0,4.97,7.614a7.476,7.476,0,0,1-3.412-.942c0,.032,0,.062,0,.1A7.536,7.536,0,0,0,7.6,14.154a7.562,7.562,0,0,1-1.987.265A7.488,7.488,0,0,1,4.2,14.283a7.543,7.543,0,0,0,7.039,5.233,15.116,15.116,0,0,1-9.358,3.225,15.334,15.334,0,0,1-1.8-.1,21.328,21.328,0,0,0,11.549,3.385" transform="translate(-0.082 3.824)" fill="#f37030"/></svg>